<svg width="152" height="24" viewBox="0 0 152 24" fill="none" xmlns="http://www.w3.org/2000/svg">
<g filter="url(#filter0_d_1_656)">
<path d="M12.9961 3.04688V13H10.9453V4.65332H6.94629V13H4.89551V3.04688H12.9961ZM19.0831 9.45215H16.547V7.85254H19.0831C19.475 7.85254 19.794 7.78874 20.0401 7.66113C20.2862 7.52897 20.4662 7.34668 20.5802 7.11426C20.6941 6.88184 20.7511 6.61979 20.7511 6.32812C20.7511 6.0319 20.6941 5.75618 20.5802 5.50098C20.4662 5.24577 20.2862 5.04069 20.0401 4.88574C19.794 4.73079 19.475 4.65332 19.0831 4.65332H17.2579V13H15.2071V3.04688H19.0831C19.8624 3.04688 20.53 3.18815 21.086 3.4707C21.6466 3.7487 22.0749 4.13379 22.3712 4.62598C22.6674 5.11816 22.8155 5.68099 22.8155 6.31445C22.8155 6.95703 22.6674 7.51302 22.3712 7.98242C22.0749 8.45182 21.6466 8.81413 21.086 9.06934C20.53 9.32454 19.8624 9.45215 19.0831 9.45215ZM26.6261 9.77344L30.6252 3.04688H32.6759V13H30.6252V6.27344L26.6261 13H24.5754V3.04688H26.6261V9.77344ZM40.6428 9.69824H42.6868C42.6457 10.3682 42.4612 10.9629 42.133 11.4824C41.8095 12.002 41.356 12.4076 40.7727 12.6992C40.1939 12.9909 39.4967 13.1367 38.6809 13.1367C38.0429 13.1367 37.4709 13.0273 36.9651 12.8086C36.4592 12.5853 36.0263 12.2663 35.6663 11.8516C35.3108 11.4368 35.0396 10.9355 34.8528 10.3477C34.6659 9.75977 34.5725 9.10124 34.5725 8.37207V7.68164C34.5725 6.95247 34.6682 6.29395 34.8596 5.70605C35.0556 5.11361 35.3336 4.61003 35.6936 4.19531C36.0582 3.7806 36.4934 3.46159 36.9993 3.23828C37.5051 3.01497 38.0702 2.90332 38.6946 2.90332C39.524 2.90332 40.2235 3.05371 40.7932 3.35449C41.3674 3.65527 41.8118 4.06999 42.1262 4.59863C42.4452 5.12728 42.6366 5.72884 42.7004 6.40332H40.6496C40.6269 6.00228 40.5471 5.66276 40.4104 5.38477C40.2737 5.10221 40.0663 4.8903 39.7883 4.74902C39.5149 4.60319 39.1503 4.53027 38.6946 4.53027C38.3528 4.53027 38.0543 4.59408 37.7991 4.72168C37.5439 4.84928 37.3297 5.04297 37.1565 5.30273C36.9833 5.5625 36.8534 5.89062 36.7668 6.28711C36.6848 6.67904 36.6438 7.13932 36.6438 7.66797V8.37207C36.6438 8.88704 36.6825 9.34049 36.76 9.73242C36.8375 10.1198 36.956 10.4479 37.1155 10.7168C37.2795 10.9811 37.4892 11.1816 37.7444 11.3184C38.0041 11.4505 38.3163 11.5166 38.6809 11.5166C39.1093 11.5166 39.4625 11.4482 39.7405 11.3115C40.0185 11.1748 40.2304 10.972 40.3762 10.7031C40.5266 10.4342 40.6155 10.0993 40.6428 9.69824ZM52.6292 7.79102V8.2627C52.6292 9.01921 52.5267 9.69824 52.3216 10.2998C52.1165 10.9014 51.8271 11.4141 51.4534 11.8379C51.0797 12.2572 50.6331 12.5785 50.1136 12.8018C49.5986 13.0251 49.0267 13.1367 48.3978 13.1367C47.7734 13.1367 47.2015 13.0251 46.682 12.8018C46.167 12.5785 45.7204 12.2572 45.3421 11.8379C44.9639 11.4141 44.6699 10.9014 44.4603 10.2998C44.2552 9.69824 44.1527 9.01921 44.1527 8.2627V7.79102C44.1527 7.02995 44.2552 6.35091 44.4603 5.75391C44.6654 5.15234 44.9547 4.63965 45.3284 4.21582C45.7067 3.79199 46.1533 3.46842 46.6683 3.24512C47.1878 3.02181 47.7598 2.91016 48.3841 2.91016C49.013 2.91016 49.5849 3.02181 50.0999 3.24512C50.6195 3.46842 51.0661 3.79199 51.4398 4.21582C51.818 4.63965 52.1097 5.15234 52.3148 5.75391C52.5244 6.35091 52.6292 7.02995 52.6292 7.79102ZM50.5579 8.2627V7.77734C50.5579 7.2487 50.5101 6.78385 50.4144 6.38281C50.3187 5.98177 50.1774 5.64453 49.9905 5.37109C49.8037 5.09766 49.5758 4.89258 49.307 4.75586C49.0381 4.61458 48.7305 4.54395 48.3841 4.54395C48.0377 4.54395 47.7301 4.61458 47.4613 4.75586C47.1969 4.89258 46.9713 5.09766 46.7845 5.37109C46.6022 5.64453 46.4632 5.98177 46.3675 6.38281C46.2718 6.78385 46.2239 7.2487 46.2239 7.77734V8.2627C46.2239 8.78678 46.2718 9.25163 46.3675 9.65723C46.4632 10.0583 46.6045 10.3978 46.7913 10.6758C46.9782 10.9492 47.206 11.1566 47.4749 11.2979C47.7438 11.4391 48.0514 11.5098 48.3978 11.5098C48.7441 11.5098 49.0517 11.4391 49.3206 11.2979C49.5895 11.1566 49.8151 10.9492 49.9974 10.6758C50.1797 10.3978 50.3187 10.0583 50.4144 9.65723C50.5101 9.25163 50.5579 8.78678 50.5579 8.2627ZM61.2045 11.4004V13H55.9066V11.4004H61.2045ZM56.5766 3.04688V13H54.5258V3.04688H56.5766ZM60.5141 7.10059V8.65918H55.9066V7.10059H60.5141ZM61.1977 3.04688V4.65332H55.9066V3.04688H61.1977ZM70.7163 11.4004V13H63.5454V11.4004H70.7163ZM64.1538 11.4004V15.4404H62.2261L62.1167 11.4004H64.1538ZM72.1929 11.4004L72.0151 15.4473H70.1352V11.4004H72.1929ZM69.5884 3.04688V4.65332H64.7964V3.04688H69.5884ZM71.0513 3.04688V13H69.0073V3.04688H71.0513ZM64.5434 3.04688H66.5942L66.3276 7.10059C66.2866 7.77051 66.2137 8.36296 66.1089 8.87793C66.0086 9.38835 65.8856 9.83724 65.7397 10.2246C65.5985 10.612 65.4412 10.9515 65.268 11.2432C65.0949 11.5303 64.9126 11.7809 64.7212 11.9951C64.5298 12.2048 64.3361 12.3916 64.1401 12.5557C63.9442 12.7152 63.7527 12.8633 63.5659 13H62.3901V11.4004H62.8481C62.9803 11.291 63.1193 11.1406 63.2651 10.9492C63.4155 10.7578 63.5568 10.5003 63.6889 10.1768C63.8257 9.84863 63.9442 9.43392 64.0444 8.93262C64.1492 8.43132 64.2267 7.82064 64.2768 7.10059L64.5434 3.04688ZM75.648 9.77344L79.647 3.04688H81.6978V13H79.647V6.27344L75.648 13H73.5972V3.04688H75.648V9.77344ZM90.5329 7.10059V8.7002H85.3375V7.10059H90.5329ZM85.9459 3.04688V13H83.8952V3.04688H85.9459ZM91.9957 3.04688V13H89.9518V3.04688H91.9957ZM99.4909 9.38379H96.7839L96.0935 9.09668C95.3142 8.85059 94.7172 8.48145 94.3025 7.98926C93.8923 7.49707 93.6872 6.87044 93.6872 6.10938C93.6872 5.43945 93.8353 4.87891 94.1316 4.42773C94.4323 3.97201 94.8562 3.62793 95.403 3.39551C95.9545 3.16309 96.6084 3.04688 97.365 3.04688H100.838V13H98.78V4.65332H97.365C96.8044 4.65332 96.392 4.79232 96.1277 5.07031C95.8633 5.34831 95.7312 5.74251 95.7312 6.25293C95.7312 6.62663 95.7927 6.93424 95.9157 7.17578C96.0388 7.41276 96.2188 7.59049 96.4558 7.70898C96.6928 7.82292 96.9913 7.87988 97.3513 7.87988H99.4841L99.4909 9.38379ZM97.5154 8.55664L95.3073 13H93.0857L95.3005 8.55664H97.5154ZM104.908 9.77344L108.907 3.04688H110.958V13H108.907V6.27344L104.908 13H102.857V3.04688H104.908V9.77344ZM107.902 0.435547H109.304C109.304 0.827474 109.206 1.17611 109.01 1.48145C108.818 1.78223 108.545 2.01921 108.189 2.19238C107.834 2.361 107.415 2.44531 106.931 2.44531C106.198 2.44531 105.617 2.25846 105.188 1.88477C104.764 1.51107 104.553 1.02799 104.553 0.435547H105.947C105.947 0.672526 106.02 0.88444 106.166 1.07129C106.316 1.25814 106.571 1.35156 106.931 1.35156C107.287 1.35156 107.538 1.25814 107.683 1.07129C107.829 0.88444 107.902 0.672526 107.902 0.435547ZM117.605 3.04688V13H115.561V3.04688H117.605ZM120.668 3.04688V4.65332H112.547V3.04688H120.668ZM128.936 11.4004V13H123.638V11.4004H128.936ZM124.308 3.04688V13H122.257V3.04688H124.308ZM128.245 7.10059V8.65918H123.638V7.10059H128.245ZM128.929 3.04688V4.65332H123.638V3.04688H128.929ZM136.321 9.69824H138.365C138.324 10.3682 138.14 10.9629 137.812 11.4824C137.488 12.002 137.035 12.4076 136.451 12.6992C135.872 12.9909 135.175 13.1367 134.359 13.1367C133.721 13.1367 133.149 13.0273 132.644 12.8086C132.138 12.5853 131.705 12.2663 131.345 11.8516C130.989 11.4368 130.718 10.9355 130.531 10.3477C130.344 9.75977 130.251 9.10124 130.251 8.37207V7.68164C130.251 6.95247 130.347 6.29395 130.538 5.70605C130.734 5.11361 131.012 4.61003 131.372 4.19531C131.737 3.7806 132.172 3.46159 132.678 3.23828C133.184 3.01497 133.749 2.90332 134.373 2.90332C135.203 2.90332 135.902 3.05371 136.472 3.35449C137.046 3.65527 137.49 4.06999 137.805 4.59863C138.124 5.12728 138.315 5.72884 138.379 6.40332H136.328C136.305 6.00228 136.226 5.66276 136.089 5.38477C135.952 5.10221 135.745 4.8903 135.467 4.74902C135.193 4.60319 134.829 4.53027 134.373 4.53027C134.031 4.53027 133.733 4.59408 133.478 4.72168C133.222 4.84928 133.008 5.04297 132.835 5.30273C132.662 5.5625 132.532 5.89062 132.445 6.28711C132.363 6.67904 132.322 7.13932 132.322 7.66797V8.37207C132.322 8.88704 132.361 9.34049 132.439 9.73242C132.516 10.1198 132.634 10.4479 132.794 10.7168C132.958 10.9811 133.168 11.1816 133.423 11.3184C133.683 11.4505 133.995 11.5166 134.359 11.5166C134.788 11.5166 135.141 11.4482 135.419 11.3115C135.697 11.1748 135.909 10.972 136.055 10.7031C136.205 10.4342 136.294 10.0993 136.321 9.69824ZM141.458 6.67676H143.782C144.566 6.67676 145.241 6.80664 145.806 7.06641C146.371 7.32617 146.806 7.69076 147.111 8.16016C147.417 8.62956 147.569 9.17643 147.569 9.80078C147.569 10.2747 147.483 10.7077 147.31 11.0996C147.137 11.487 146.884 11.8242 146.551 12.1113C146.223 12.3939 145.826 12.6126 145.361 12.7676C144.897 12.9225 144.37 13 143.782 13H140.118V3.04688H142.176V11.4004H143.782C144.174 11.4004 144.498 11.3275 144.753 11.1816C145.008 11.0358 145.2 10.8421 145.327 10.6006C145.459 10.3545 145.526 10.0833 145.526 9.78711C145.526 9.50456 145.459 9.24935 145.327 9.02148C145.2 8.78906 145.008 8.60677 144.753 8.47461C144.498 8.34245 144.174 8.27637 143.782 8.27637H141.458V6.67676Z" fill="white"/>
<path d="M12.9961 3.04688H13.9961V2.04688H12.9961V3.04688ZM12.9961 13V14H13.9961V13H12.9961ZM10.9453 13H9.94531V14H10.9453V13ZM10.9453 4.65332H11.9453V3.65332H10.9453V4.65332ZM6.94629 4.65332V3.65332H5.94629V4.65332H6.94629ZM6.94629 13V14H7.94629V13H6.94629ZM4.89551 13H3.89551V14H4.89551V13ZM4.89551 3.04688V2.04688H3.89551V3.04688H4.89551ZM11.9961 3.04688V13H13.9961V3.04688H11.9961ZM12.9961 12H10.9453V14H12.9961V12ZM11.9453 13V4.65332H9.94531V13H11.9453ZM10.9453 3.65332H6.94629V5.65332H10.9453V3.65332ZM5.94629 4.65332V13H7.94629V4.65332H5.94629ZM6.94629 12H4.89551V14H6.94629V12ZM5.89551 13V3.04688H3.89551V13H5.89551ZM4.89551 4.04688H12.9961V2.04688H4.89551V4.04688ZM16.547 9.45215H15.547V10.4521H16.547V9.45215ZM16.547 7.85254V6.85254H15.547V7.85254H16.547ZM20.0401 7.66113L20.5004 8.54889L20.5069 8.54555L20.5132 8.54213L20.0401 7.66113ZM20.0401 4.88574L19.5073 5.73198L20.0401 4.88574ZM17.2579 4.65332V3.65332H16.2579V4.65332H17.2579ZM17.2579 13V14H18.2579V13H17.2579ZM15.2071 13H14.2071V14H15.2071V13ZM15.2071 3.04688V2.04688H14.2071V3.04688H15.2071ZM21.086 3.4707L20.6329 4.36223L20.6417 4.36658L21.086 3.4707ZM22.3712 4.62598L23.228 4.11031L22.3712 4.62598ZM22.3712 7.98242L23.2169 8.51611L22.3712 7.98242ZM21.086 9.06934L20.6717 8.15922L20.6688 8.16051L21.086 9.06934ZM19.0831 8.45215H16.547V10.4521H19.0831V8.45215ZM17.547 9.45215V7.85254H15.547V9.45215H17.547ZM16.547 8.85254H19.0831V6.85254H16.547V8.85254ZM19.0831 8.85254C19.573 8.85254 20.0656 8.77437 20.5004 8.54889L19.5798 6.77338C19.5225 6.80311 19.377 6.85254 19.0831 6.85254V8.85254ZM20.5132 8.54213C20.9281 8.31931 21.2647 7.98968 21.4781 7.55442L19.6822 6.6741C19.6677 6.70368 19.6443 6.73863 19.567 6.78014L20.5132 8.54213ZM21.4781 7.55442C21.6673 7.1685 21.7511 6.75289 21.7511 6.32812H19.7511C19.7511 6.48669 19.7209 6.59517 19.6822 6.6741L21.4781 7.55442ZM21.7511 6.32812C21.7511 5.89999 21.6679 5.48441 21.4933 5.09333L19.667 5.90863C19.7203 6.02796 19.7511 6.16381 19.7511 6.32812H21.7511ZM21.4933 5.09333C21.2954 4.64994 20.9792 4.29531 20.5729 4.03951L19.5073 5.73198C19.5932 5.78607 19.6371 5.84159 19.667 5.90863L21.4933 5.09333ZM20.5729 4.03951C20.1208 3.75486 19.5999 3.65332 19.0831 3.65332V5.65332C19.3501 5.65332 19.4672 5.70673 19.5073 5.73198L20.5729 4.03951ZM19.0831 3.65332H17.2579V5.65332H19.0831V3.65332ZM16.2579 4.65332V13H18.2579V4.65332H16.2579ZM17.2579 12H15.2071V14H17.2579V12ZM16.2071 13V3.04688H14.2071V13H16.2071ZM15.2071 4.04688H19.0831V2.04688H15.2071V4.04688ZM19.0831 4.04688C19.7434 4.04688 20.248 4.16655 20.633 4.36219L21.5391 2.57922C20.812 2.20975 19.9814 2.04688 19.0831 2.04688V4.04688ZM20.6417 4.36658C21.0472 4.56766 21.3253 4.82748 21.5144 5.14164L23.228 4.11031C22.8246 3.44009 22.246 2.92974 21.5303 2.57482L20.6417 4.36658ZM21.5144 5.14164C21.7075 5.46245 21.8155 5.84346 21.8155 6.31445H23.8155C23.8155 5.51851 23.6273 4.77388 23.228 4.11031L21.5144 5.14164ZM21.8155 6.31445C21.8155 6.79853 21.7058 7.16298 21.5255 7.44874L23.2169 8.51611C23.629 7.86306 23.8155 7.11554 23.8155 6.31445H21.8155ZM21.5255 7.44874C21.3445 7.73552 21.075 7.97559 20.6717 8.15922L21.5004 9.97945C22.2181 9.65266 22.8054 9.16813 23.2169 8.51611L21.5255 7.44874ZM20.6688 8.16051C20.2744 8.34156 19.7565 8.45215 19.0831 8.45215V10.4521C19.9683 10.4521 20.7857 10.3075 21.5032 9.97817L20.6688 8.16051ZM26.6261 9.77344H25.6261V13.4123L27.4857 10.2845L26.6261 9.77344ZM30.6252 3.04688V2.04688H30.0563L29.7656 2.53585L30.6252 3.04688ZM32.6759 3.04688H33.6759V2.04688H32.6759V3.04688ZM32.6759 13V14H33.6759V13H32.6759ZM30.6252 13H29.6252V14H30.6252V13ZM30.6252 6.27344H31.6252V2.63453L29.7656 5.76241L30.6252 6.27344ZM26.6261 13V14H27.195L27.4857 13.511L26.6261 13ZM24.5754 13H23.5754V14H24.5754V13ZM24.5754 3.04688V2.04688H23.5754V3.04688H24.5754ZM26.6261 3.04688H27.6261V2.04688H26.6261V3.04688ZM27.4857 10.2845L31.4847 3.5579L29.7656 2.53585L25.7666 9.26241L27.4857 10.2845ZM30.6252 4.04688H32.6759V2.04688H30.6252V4.04688ZM31.6759 3.04688V13H33.6759V3.04688H31.6759ZM32.6759 12H30.6252V14H32.6759V12ZM31.6252 13V6.27344H29.6252V13H31.6252ZM29.7656 5.76241L25.7666 12.489L27.4857 13.511L31.4847 6.78446L29.7656 5.76241ZM26.6261 12H24.5754V14H26.6261V12ZM25.5754 13V3.04688H23.5754V13H25.5754ZM24.5754 4.04688H26.6261V2.04688H24.5754V4.04688ZM25.6261 3.04688V9.77344H27.6261V3.04688H25.6261ZM40.6428 9.69824V8.69824H39.7087L39.6451 9.63022L40.6428 9.69824ZM42.6868 9.69824L43.6849 9.75935L43.7499 8.69824H42.6868V9.69824ZM42.133 11.4824L41.2875 10.9484L41.2842 10.9538L42.133 11.4824ZM40.7727 12.6992L40.3255 11.8048L40.3227 11.8062L40.7727 12.6992ZM36.9651 12.8086L36.5612 13.7234L36.5682 13.7265L36.9651 12.8086ZM35.6663 11.8516L34.907 12.5024L34.9111 12.5071L35.6663 11.8516ZM34.8528 10.3477L33.8998 10.6506L34.8528 10.3477ZM34.8596 5.70605L33.9102 5.39202L33.9087 5.39647L34.8596 5.70605ZM35.6936 4.19531L34.9425 3.53504L34.9385 3.53975L35.6936 4.19531ZM40.7932 3.35449L40.3263 4.2388L40.3292 4.24032L40.7932 3.35449ZM42.1262 4.59863L41.2667 5.10987L41.27 5.1153L42.1262 4.59863ZM42.7004 6.40332V7.40332H43.7995L43.696 6.30915L42.7004 6.40332ZM40.6496 6.40332L39.6513 6.46005L39.7049 7.40332H40.6496V6.40332ZM40.4104 5.38477L39.5102 5.82034L39.513 5.82609L40.4104 5.38477ZM39.7883 4.74902L39.3177 5.63138L39.3265 5.63603L39.3353 5.64051L39.7883 4.74902ZM37.7991 4.72168L37.3518 3.82725L37.7991 4.72168ZM36.7668 6.28711L35.7898 6.07374L35.788 6.08225L36.7668 6.28711ZM36.76 9.73242L35.779 9.92634L35.7794 9.92854L36.76 9.73242ZM37.1155 10.7168L36.2554 11.227L36.2605 11.2356L36.2658 11.2442L37.1155 10.7168ZM37.7444 11.3184L37.2722 12.1998L37.2815 12.2048L37.2909 12.2096L37.7444 11.3184ZM40.3762 10.7031L39.5034 10.2149L39.4972 10.2264L40.3762 10.7031ZM40.6428 10.6982H42.6868V8.69824H40.6428V10.6982ZM41.6886 9.63713C41.6569 10.155 41.5177 10.584 41.2876 10.9484L42.9785 12.0164C43.4046 11.3417 43.6346 10.5813 43.6849 9.75935L41.6886 9.63713ZM41.2842 10.9538C41.0647 11.3063 40.755 11.59 40.3255 11.8048L41.2199 13.5936C41.957 13.2251 42.5543 12.6976 42.9819 12.0111L41.2842 10.9538ZM40.3227 11.8062C39.9149 12.0117 39.3798 12.1367 38.6809 12.1367V14.1367C39.6135 14.1367 40.473 13.9701 41.2227 13.5922L40.3227 11.8062ZM38.6809 12.1367C38.1581 12.1367 37.7243 12.0474 37.362 11.8907L36.5682 13.7265C37.2175 14.0073 37.9277 14.1367 38.6809 14.1367V12.1367ZM37.3689 11.8938C36.9969 11.7295 36.6842 11.4987 36.4214 11.196L34.9111 12.5071C35.3684 13.0339 35.9216 13.441 36.5612 13.7234L37.3689 11.8938ZM36.4255 11.2008C36.1679 10.9002 35.9573 10.5214 35.8058 10.0448L33.8998 10.6506C34.122 11.3497 34.4537 11.9735 34.907 12.5024L36.4255 11.2008ZM35.8058 10.0448C35.6551 9.57076 35.5725 9.01664 35.5725 8.37207H33.5725C33.5725 9.18583 33.6767 9.94877 33.8998 10.6506L35.8058 10.0448ZM35.5725 8.37207V7.68164H33.5725V8.37207H35.5725ZM35.5725 7.68164C35.5725 7.03925 35.6569 6.48748 35.8105 6.01564L33.9087 5.39647C33.6795 6.10041 33.5725 6.86569 33.5725 7.68164H35.5725ZM35.809 6.02009C35.9691 5.53619 36.1864 5.15301 36.4487 4.85087L34.9385 3.53975C34.4807 4.06704 34.1421 4.69103 33.9102 5.39202L35.809 6.02009ZM36.4446 4.85557C36.7132 4.55007 37.0299 4.31786 37.4031 4.15311L36.5954 2.32345C35.9569 2.60532 35.4032 3.01113 34.9426 3.53506L36.4446 4.85557ZM37.4031 4.15311C37.7663 3.99279 38.1913 3.90332 38.6946 3.90332V1.90332C37.9491 1.90332 37.244 2.03716 36.5954 2.32345L37.4031 4.15311ZM38.6946 3.90332C39.4067 3.90332 39.936 4.03271 40.3263 4.2388L41.2601 2.47019C40.5111 2.07471 39.6413 1.90332 38.6946 1.90332V3.90332ZM40.3292 4.24032C40.7487 4.46007 41.0521 4.74899 41.2668 5.10986L42.9857 4.08741C42.5714 3.39099 41.9861 2.85048 41.2572 2.46866L40.3292 4.24032ZM41.27 5.1153C41.5041 5.50326 41.6538 5.95779 41.7049 6.49749L43.696 6.30915C43.6194 5.4999 43.3863 4.75129 42.9824 4.08197L41.27 5.1153ZM42.7004 5.40332H40.6496V7.40332H42.7004V5.40332ZM41.648 6.34659C41.6198 5.84976 41.5183 5.3715 41.3077 4.94345L39.513 5.82609C39.576 5.95403 39.6339 6.1548 39.6513 6.46005L41.648 6.34659ZM41.3106 4.9492C41.0793 4.4713 40.7156 4.09855 40.2414 3.85754L39.3353 5.64051C39.417 5.68205 39.468 5.73312 39.5102 5.82033L41.3106 4.9492ZM40.2589 3.86667C39.7885 3.61576 39.2428 3.53027 38.6946 3.53027V5.53027C39.0578 5.53027 39.2413 5.59062 39.3177 5.63138L40.2589 3.86667ZM38.6946 3.53027C38.228 3.53027 37.7708 3.61779 37.3518 3.82725L38.2463 5.61611C38.3378 5.57036 38.4776 5.53027 38.6946 5.53027V3.53027ZM37.3518 3.82725C36.9266 4.03988 36.5848 4.35748 36.3244 4.74803L37.9885 5.85743C38.0745 5.72845 38.1611 5.65868 38.2463 5.61611L37.3518 3.82725ZM36.3244 4.74803C36.0648 5.13751 35.8955 5.59018 35.7899 6.07375L37.7438 6.50047C37.8114 6.19107 37.9018 5.98749 37.9885 5.85743L36.3244 4.74803ZM35.788 6.08225C35.6883 6.559 35.6438 7.09096 35.6438 7.66797H37.6438C37.6438 7.18769 37.6814 6.79907 37.7456 6.49197L35.788 6.08225ZM35.6438 7.66797V8.37207H37.6438V7.66797H35.6438ZM35.6438 8.37207C35.6438 8.93455 35.6859 9.45533 35.779 9.92634L37.741 9.5385C37.6792 9.22566 37.6438 8.83954 37.6438 8.37207H35.6438ZM35.7794 9.92854C35.8735 10.3988 36.0254 10.8392 36.2554 11.227L37.9755 10.2066C37.8866 10.0566 37.8015 9.84081 37.7406 9.53631L35.7794 9.92854ZM36.2658 11.2442C36.5153 11.6461 36.8507 11.9741 37.2722 12.1998L38.2166 10.4369C38.1276 10.3892 38.0438 10.3161 37.9651 10.1894L36.2658 11.2442ZM37.2909 12.2096C37.722 12.429 38.1974 12.5166 38.6809 12.5166V10.5166C38.4352 10.5166 38.2863 10.4721 38.1978 10.4271L37.2909 12.2096ZM38.6809 12.5166C39.2071 12.5166 39.7243 12.4339 40.1818 12.2089L39.2991 10.4142C39.2007 10.4626 39.0115 10.5166 38.6809 10.5166V12.5166ZM40.1818 12.2089C40.6432 11.982 41.0093 11.6334 41.2552 11.1799L39.4972 10.2264C39.4515 10.3106 39.3937 10.3677 39.2991 10.4142L40.1818 12.2089ZM41.249 11.1913C41.4901 10.7602 41.606 10.2717 41.6405 9.76627L39.6451 9.63022C39.6249 9.92685 39.5632 10.1082 39.5035 10.215L41.249 11.1913ZM51.4534 11.8379L52.2 12.5033L52.2035 12.4992L51.4534 11.8379ZM50.1136 12.8018L49.7187 11.883L49.7158 11.8843L50.1136 12.8018ZM46.682 12.8018L46.2841 13.7192L46.2871 13.7205L46.682 12.8018ZM45.3421 11.8379L44.596 12.5038L44.5996 12.5077L45.3421 11.8379ZM44.4603 10.2998L43.5137 10.6225L43.516 10.6289L44.4603 10.2998ZM44.4603 5.75391L45.406 6.07879L45.4068 6.07658L44.4603 5.75391ZM45.3284 4.21582L44.5823 3.54995L44.5784 3.55447L45.3284 4.21582ZM46.6683 3.24512L46.2734 2.32638L46.2704 2.32766L46.6683 3.24512ZM50.0999 3.24512L49.7021 4.16258L49.705 4.16384L50.0999 3.24512ZM51.4398 4.21582L50.6897 4.87719L50.6937 4.88168L51.4398 4.21582ZM52.3148 5.75391L51.3682 6.07659L51.3712 6.08522L52.3148 5.75391ZM50.4144 6.38281L49.4417 6.61493L50.4144 6.38281ZM49.307 4.75586L48.8418 5.64118L48.8537 5.64724L49.307 4.75586ZM47.4613 4.75586L47.9207 5.6441L47.9264 5.6411L47.4613 4.75586ZM46.7845 5.37109L45.9588 4.80687L45.9524 4.81639L46.7845 5.37109ZM46.3675 9.65723L45.3942 9.88688L45.3948 9.88935L46.3675 9.65723ZM46.7913 10.6758L45.9614 11.2336L45.9657 11.24L46.7913 10.6758ZM47.4749 11.2979L47.0098 12.1831L47.4749 11.2979ZM49.3206 11.2979L49.7858 12.1831L49.3206 11.2979ZM49.9974 10.6758L50.8295 11.2305L50.8336 11.2241L49.9974 10.6758ZM50.4144 9.65723L51.3871 9.88935L51.3876 9.88688L50.4144 9.65723ZM51.6292 7.79102V8.2627H53.6292V7.79102H51.6292ZM51.6292 8.2627C51.6292 8.92975 51.5387 9.49708 51.3751 9.97713L53.2681 10.6225C53.5146 9.8994 53.6292 9.10866 53.6292 8.2627H51.6292ZM51.3751 9.97713C51.2072 10.4695 50.9797 10.8632 50.7034 11.1765L52.2035 12.4992C52.6746 11.965 53.0258 11.3332 53.2681 10.6225L51.3751 9.97713ZM50.7069 11.1725C50.4312 11.4819 50.1049 11.717 49.7187 11.883L50.5085 13.7205C51.1614 13.4399 51.7283 13.0324 52.2 12.5033L50.7069 11.1725ZM49.7158 11.8843C49.3407 12.047 48.9063 12.1367 48.3978 12.1367V14.1367C49.147 14.1367 49.8566 14.0032 50.5114 13.7192L49.7158 11.8843ZM48.3978 12.1367C47.895 12.1367 47.4592 12.0474 47.0768 11.883L46.2871 13.7205C46.9438 14.0027 47.6518 14.1367 48.3978 14.1367V12.1367ZM47.0798 11.8843C46.6969 11.7183 46.3676 11.4817 46.0846 11.168L44.5996 12.5077C45.0731 13.0326 45.6371 13.4386 46.2841 13.7192L47.0798 11.8843ZM46.0882 11.172C45.8075 10.8576 45.5762 10.4631 45.4046 9.97073L43.516 10.6289C43.7636 11.3396 44.1202 11.9706 44.596 12.5037L46.0882 11.172ZM45.4068 9.97713C45.2431 9.49708 45.1527 8.92975 45.1527 8.2627H43.1527C43.1527 9.10866 43.2673 9.8994 43.5138 10.6225L45.4068 9.97713ZM45.1527 8.2627V7.79102H43.1527V8.2627H45.1527ZM45.1527 7.79102C45.1527 7.11847 45.2434 6.55227 45.406 6.07878L43.5145 5.42903C43.267 6.14956 43.1527 6.94142 43.1527 7.79102H45.1527ZM45.4068 6.07658C45.5746 5.58422 45.8022 5.19055 46.0785 4.87718L44.5784 3.55447C44.1073 4.08875 43.7561 4.72046 43.5138 5.43123L45.4068 6.07658ZM46.0745 4.88168C46.3575 4.56461 46.6857 4.32752 47.0661 4.16257L46.2704 2.32766C45.6209 2.60933 45.0559 3.01938 44.5824 3.54996L46.0745 4.88168ZM47.0632 4.16384C47.4455 3.99949 47.8813 3.91016 48.3841 3.91016V1.91016C47.6382 1.91016 46.9301 2.04413 46.2734 2.32639L47.0632 4.16384ZM48.3841 3.91016C48.8926 3.91016 49.327 3.99992 49.7021 4.16257L50.4978 2.32766C49.8429 2.0437 49.1334 1.91016 48.3841 1.91016V3.91016ZM49.705 4.16384C50.0887 4.32875 50.414 4.56446 50.6897 4.87718L52.1898 3.55447C51.7182 3.01953 51.1502 2.6081 50.4948 2.32639L49.705 4.16384ZM50.6937 4.88168C50.9728 5.19446 51.2012 5.58662 51.3683 6.07658L53.2613 5.43123C53.0182 4.71807 52.6632 4.08484 52.1858 3.54996L50.6937 4.88168ZM51.3712 6.08522C51.5368 6.55666 51.6292 7.12058 51.6292 7.79102H53.6292C53.6292 6.93932 53.512 6.14516 53.2583 5.42259L51.3712 6.08522ZM51.5579 8.2627V7.77734H49.5579V8.2627H51.5579ZM51.5579 7.77734C51.5579 7.19126 51.5052 6.6456 51.3871 6.15069L49.4417 6.61493C49.515 6.92211 49.5579 7.30613 49.5579 7.77734H51.5579ZM51.3871 6.15069C51.2697 5.65893 51.0865 5.20245 50.8162 4.8069L49.1649 5.93528C49.2683 6.08661 49.3676 6.30461 49.4417 6.61493L51.3871 6.15069ZM50.8162 4.8069C50.5441 4.40876 50.193 4.08455 49.7602 3.86447L48.8537 5.64724C48.9587 5.70061 49.0633 5.78655 49.1649 5.93528L50.8162 4.8069ZM49.7721 3.87062C49.3407 3.64397 48.8696 3.54395 48.3841 3.54395V5.54395C48.5913 5.54395 48.7354 5.58519 48.8418 5.6411L49.7721 3.87062ZM48.3841 3.54395C47.8986 3.54395 47.4275 3.64397 46.9961 3.87062L47.9264 5.6411C48.0328 5.58519 48.1769 5.54395 48.3841 5.54395V3.54395ZM47.0018 3.86764C46.5745 4.08868 46.2283 4.41252 45.9588 4.8069L47.6101 5.93528C47.7143 5.7828 47.8194 5.69648 47.9207 5.64408L47.0018 3.86764ZM45.9524 4.81639C45.6903 5.20966 45.5113 5.66275 45.3948 6.15069L47.3402 6.61493C47.4152 6.3008 47.5141 6.0794 47.6165 5.92579L45.9524 4.81639ZM45.3948 6.15069C45.2767 6.6456 45.2239 7.19126 45.2239 7.77734H47.2239C47.2239 7.30613 47.2669 6.92211 47.3402 6.61493L45.3948 6.15069ZM45.2239 7.77734V8.2627H47.2239V7.77734H45.2239ZM45.2239 8.2627C45.2239 8.84527 45.2769 9.38966 45.3942 9.88688L47.3408 9.42758C47.2667 9.1136 47.2239 8.7283 47.2239 8.2627H45.2239ZM45.3948 9.88935C45.5121 10.3807 45.6945 10.8365 45.9614 11.2336L47.6213 10.1179C47.5145 9.95906 47.4143 9.73584 47.3402 9.42511L45.3948 9.88935ZM45.9657 11.24C46.2362 11.6358 46.5835 11.9591 47.0098 12.1831L47.9401 10.4126C47.8286 10.354 47.7202 10.2626 47.617 10.1116L45.9657 11.24ZM47.0098 12.1831C47.4411 12.4097 47.9123 12.5098 48.3978 12.5098V10.5098C48.1905 10.5098 48.0465 10.4685 47.9401 10.4126L47.0098 12.1831ZM48.3978 12.5098C48.8832 12.5098 49.3544 12.4097 49.7858 12.1831L48.8555 10.4126C48.7491 10.4685 48.605 10.5098 48.3978 10.5098V12.5098ZM49.7858 12.1831C50.2146 11.9578 50.5622 11.6313 50.8294 11.2305L49.1653 10.1211C49.068 10.2671 48.9644 10.3554 48.8555 10.4126L49.7858 12.1831ZM50.8336 11.2241C51.0925 10.8293 51.2707 10.3769 51.3871 9.88935L49.4417 9.42511C49.3666 9.73964 49.2668 9.96624 49.1611 10.1274L50.8336 11.2241ZM51.3876 9.88688C51.505 9.38966 51.5579 8.84527 51.5579 8.2627H49.5579C49.5579 8.7283 49.5152 9.1136 49.4411 9.42758L51.3876 9.88688ZM61.2045 11.4004H62.2045V10.4004H61.2045V11.4004ZM61.2045 13V14H62.2045V13H61.2045ZM55.9066 13H54.9066V14H55.9066V13ZM55.9066 11.4004V10.4004H54.9066V11.4004H55.9066ZM56.5766 3.04688H57.5766V2.04688H56.5766V3.04688ZM56.5766 13V14H57.5766V13H56.5766ZM54.5258 13H53.5258V14H54.5258V13ZM54.5258 3.04688V2.04688H53.5258V3.04688H54.5258ZM60.5141 7.10059H61.5141V6.10059H60.5141V7.10059ZM60.5141 8.65918V9.65918H61.5141V8.65918H60.5141ZM55.9066 8.65918H54.9066V9.65918H55.9066V8.65918ZM55.9066 7.10059V6.10059H54.9066V7.10059H55.9066ZM61.1977 3.04688H62.1977V2.04688H61.1977V3.04688ZM61.1977 4.65332V5.65332H62.1977V4.65332H61.1977ZM55.9066 4.65332H54.9066V5.65332H55.9066V4.65332ZM55.9066 3.04688V2.04688H54.9066V3.04688H55.9066ZM60.2045 11.4004V13H62.2045V11.4004H60.2045ZM61.2045 12H55.9066V14H61.2045V12ZM56.9066 13V11.4004H54.9066V13H56.9066ZM55.9066 12.4004H61.2045V10.4004H55.9066V12.4004ZM55.5766 3.04688V13H57.5766V3.04688H55.5766ZM56.5766 12H54.5258V14H56.5766V12ZM55.5258 13V3.04688H53.5258V13H55.5258ZM54.5258 4.04688H56.5766V2.04688H54.5258V4.04688ZM59.5141 7.10059V8.65918H61.5141V7.10059H59.5141ZM60.5141 7.65918H55.9066V9.65918H60.5141V7.65918ZM56.9066 8.65918V7.10059H54.9066V8.65918H56.9066ZM55.9066 8.10059H60.5141V6.10059H55.9066V8.10059ZM60.1977 3.04688V4.65332H62.1977V3.04688H60.1977ZM61.1977 3.65332H55.9066V5.65332H61.1977V3.65332ZM56.9066 4.65332V3.04688H54.9066V4.65332H56.9066ZM55.9066 4.04688H61.1977V2.04688H55.9066V4.04688ZM70.7163 11.4004H71.7163V10.4004H70.7163V11.4004ZM70.7163 13V14H71.7163V13H70.7163ZM63.5454 13H62.5454V14H63.5454V13ZM63.5454 11.4004V10.4004H62.5454V11.4004H63.5454ZM64.1538 11.4004H65.1538V10.4004H64.1538V11.4004ZM64.1538 15.4404V16.4404H65.1538V15.4404H64.1538ZM62.2261 15.4404L61.2264 15.4675L61.2528 16.4404H62.2261V15.4404ZM62.1167 11.4004V10.4004H61.0892L61.117 11.4275L62.1167 11.4004ZM72.1929 11.4004L73.1919 11.4443L73.2377 10.4004H72.1929V11.4004ZM72.0151 15.4473V16.4473H72.9722L73.0142 15.4911L72.0151 15.4473ZM70.1352 15.4473H69.1352V16.4473H70.1352V15.4473ZM70.1352 11.4004V10.4004H69.1352V11.4004H70.1352ZM69.5884 3.04688H70.5884V2.04688H69.5884V3.04688ZM69.5884 4.65332V5.65332H70.5884V4.65332H69.5884ZM64.7964 4.65332H63.7964V5.65332H64.7964V4.65332ZM64.7964 3.04688V2.04688H63.7964V3.04688H64.7964ZM71.0513 3.04688H72.0513V2.04688H71.0513V3.04688ZM71.0513 13V14H72.0513V13H71.0513ZM69.0073 13H68.0073V14H69.0073V13ZM69.0073 3.04688V2.04688H68.0073V3.04688H69.0073ZM64.5434 3.04688V2.04688H63.607L63.5456 2.98125L64.5434 3.04688ZM66.5942 3.04688L67.5921 3.1125L67.6621 2.04688H66.5942V3.04688ZM66.3276 7.10059L65.3298 7.03496L65.3295 7.03948L66.3276 7.10059ZM66.1089 8.87793L65.1289 8.67847L65.1276 8.68518L66.1089 8.87793ZM65.7397 10.2246L64.8038 9.87226L64.8003 9.88198L65.7397 10.2246ZM65.268 11.2432L66.1244 11.7597L66.1279 11.7537L65.268 11.2432ZM64.7212 11.9951L65.4597 12.6694L65.4668 12.6614L64.7212 11.9951ZM64.1401 12.5557L64.7714 13.3313L64.7821 13.3224L64.1401 12.5557ZM63.5659 13V14H63.8927L64.1564 13.807L63.5659 13ZM62.3901 13H61.3901V14H62.3901V13ZM62.3901 11.4004V10.4004H61.3901V11.4004H62.3901ZM62.8481 11.4004V12.4004H63.2083L63.4857 12.1708L62.8481 11.4004ZM63.2651 10.9492L62.4788 10.3314L62.4742 10.3373L62.4697 10.3432L63.2651 10.9492ZM63.6889 10.1768L62.7658 9.79213L62.7632 9.79863L63.6889 10.1768ZM64.0444 8.93262L63.0655 8.72794L63.0638 8.7365L64.0444 8.93262ZM64.2768 7.10059L65.2744 7.17004L65.2747 7.16621L64.2768 7.10059ZM69.7163 11.4004V13H71.7163V11.4004H69.7163ZM70.7163 12H63.5454V14H70.7163V12ZM64.5454 13V11.4004H62.5454V13H64.5454ZM63.5454 12.4004H70.7163V10.4004H63.5454V12.4004ZM63.1538 11.4004V15.4404H65.1538V11.4004H63.1538ZM64.1538 14.4404H62.2261V16.4404H64.1538V14.4404ZM63.2257 15.4134L63.1163 11.3733L61.117 11.4275L61.2264 15.4675L63.2257 15.4134ZM62.1167 12.4004H64.1538V10.4004H62.1167V12.4004ZM71.1938 11.3565L71.0161 15.4034L73.0142 15.4911L73.1919 11.4443L71.1938 11.3565ZM72.0151 14.4473H70.1352V16.4473H72.0151V14.4473ZM71.1352 15.4473V11.4004H69.1352V15.4473H71.1352ZM70.1352 12.4004H72.1929V10.4004H70.1352V12.4004ZM68.5884 3.04688V4.65332H70.5884V3.04688H68.5884ZM69.5884 3.65332H64.7964V5.65332H69.5884V3.65332ZM65.7964 4.65332V3.04688H63.7964V4.65332H65.7964ZM64.7964 4.04688H69.5884V2.04688H64.7964V4.04688ZM70.0513 3.04688V13H72.0513V3.04688H70.0513ZM71.0513 12H69.0073V14H71.0513V12ZM70.0073 13V3.04688H68.0073V13H70.0073ZM69.0073 4.04688H71.0513V2.04688H69.0073V4.04688ZM64.5434 4.04688H66.5942V2.04688H64.5434V4.04688ZM65.5964 2.98125L65.3298 7.03496L67.3255 7.16621L67.5921 3.1125L65.5964 2.98125ZM65.3295 7.03948C65.2906 7.67496 65.2224 8.21961 65.129 8.67848L67.0888 9.07738C67.205 8.5063 67.2826 7.86605 67.3257 7.1617L65.3295 7.03948ZM65.1276 8.68518C65.0355 9.15438 64.926 9.54794 64.8039 9.87228L66.6756 10.5769C66.8452 10.1265 66.9818 9.62231 67.0901 9.07067L65.1276 8.68518ZM64.8003 9.88198C64.6759 10.223 64.5438 10.5043 64.4082 10.7326L66.1279 11.7537C66.3387 11.3987 66.521 11.001 66.6792 10.5672L64.8003 9.88198ZM64.4118 10.7267C64.2655 10.9691 64.1193 11.1679 63.9755 11.3288L65.4668 12.6614C65.7059 12.3939 65.9242 12.0914 66.1243 11.7597L64.4118 10.7267ZM63.9827 11.3208C63.8181 11.5011 63.6564 11.6564 63.4982 11.7889L64.7821 13.3224C65.0157 13.1268 65.2414 12.9084 65.4597 12.6694L63.9827 11.3208ZM63.5088 11.7801C63.325 11.9297 63.1472 12.0673 62.9754 12.193L64.1564 13.807C64.3583 13.6593 64.5633 13.5006 64.7714 13.3312L63.5088 11.7801ZM63.5659 12H62.3901V14H63.5659V12ZM63.3901 13V11.4004H61.3901V13H63.3901ZM62.3901 12.4004H62.8481V10.4004H62.3901V12.4004ZM63.4857 12.1708C63.6948 11.9978 63.8855 11.7851 64.0605 11.5553L62.4697 10.3432C62.3531 10.4962 62.2658 10.5843 62.2106 10.63L63.4857 12.1708ZM64.0514 11.567C64.2782 11.2785 64.4613 10.9304 64.6147 10.5549L62.7632 9.79863C62.6523 10.0702 62.5528 10.2372 62.4788 10.3314L64.0514 11.567ZM64.612 10.5614C64.7824 10.1524 64.9169 9.66913 65.025 9.12873L63.0638 8.7365C62.9714 9.19871 62.8689 9.54483 62.7659 9.79214L64.612 10.5614ZM65.0232 9.13728C65.1403 8.57748 65.2223 7.91872 65.2744 7.17004L63.2793 7.03113C63.2311 7.72255 63.1582 8.28515 63.0656 8.72795L65.0232 9.13728ZM65.2747 7.16621L65.5413 3.1125L63.5456 2.98125L63.279 7.03496L65.2747 7.16621ZM75.648 9.77344H74.648V13.4123L76.5076 10.2845L75.648 9.77344ZM79.647 3.04688V2.04688H79.0782L78.7875 2.53585L79.647 3.04688ZM81.6978 3.04688H82.6978V2.04688H81.6978V3.04688ZM81.6978 13V14H82.6978V13H81.6978ZM79.647 13H78.647V14H79.647V13ZM79.647 6.27344H80.647V2.63453L78.7875 5.76241L79.647 6.27344ZM75.648 13V14H76.2169L76.5076 13.511L75.648 13ZM73.5972 13H72.5972V14H73.5972V13ZM73.5972 3.04688V2.04688H72.5972V3.04688H73.5972ZM75.648 3.04688H76.648V2.04688H75.648V3.04688ZM76.5076 10.2845L80.5066 3.5579L78.7875 2.53585L74.7884 9.26241L76.5076 10.2845ZM79.647 4.04688H81.6978V2.04688H79.647V4.04688ZM80.6978 3.04688V13H82.6978V3.04688H80.6978ZM81.6978 12H79.647V14H81.6978V12ZM80.647 13V6.27344H78.647V13H80.647ZM78.7875 5.76241L74.7884 12.489L76.5076 13.511L80.5066 6.78446L78.7875 5.76241ZM75.648 12H73.5972V14H75.648V12ZM74.5972 13V3.04688H72.5972V13H74.5972ZM73.5972 4.04688H75.648V2.04688H73.5972V4.04688ZM74.648 3.04688V9.77344H76.648V3.04688H74.648ZM90.5329 7.10059H91.5329V6.10059H90.5329V7.10059ZM90.5329 8.7002V9.7002H91.5329V8.7002H90.5329ZM85.3375 8.7002H84.3375V9.7002H85.3375V8.7002ZM85.3375 7.10059V6.10059H84.3375V7.10059H85.3375ZM85.9459 3.04688H86.9459V2.04688H85.9459V3.04688ZM85.9459 13V14H86.9459V13H85.9459ZM83.8952 13H82.8952V14H83.8952V13ZM83.8952 3.04688V2.04688H82.8952V3.04688H83.8952ZM91.9957 3.04688H92.9957V2.04688H91.9957V3.04688ZM91.9957 13V14H92.9957V13H91.9957ZM89.9518 13H88.9518V14H89.9518V13ZM89.9518 3.04688V2.04688H88.9518V3.04688H89.9518ZM89.5329 7.10059V8.7002H91.5329V7.10059H89.5329ZM90.5329 7.7002H85.3375V9.7002H90.5329V7.7002ZM86.3375 8.7002V7.10059H84.3375V8.7002H86.3375ZM85.3375 8.10059H90.5329V6.10059H85.3375V8.10059ZM84.9459 3.04688V13H86.9459V3.04688H84.9459ZM85.9459 12H83.8952V14H85.9459V12ZM84.8952 13V3.04688H82.8952V13H84.8952ZM83.8952 4.04688H85.9459V2.04688H83.8952V4.04688ZM90.9957 3.04688V13H92.9957V3.04688H90.9957ZM91.9957 12H89.9518V14H91.9957V12ZM90.9518 13V3.04688H88.9518V13H90.9518ZM89.9518 4.04688H91.9957V2.04688H89.9518V4.04688ZM99.4909 9.38379V10.3838H100.495L100.491 9.37924L99.4909 9.38379ZM96.7839 9.38379L96.3999 10.3071L96.5843 10.3838H96.7839V9.38379ZM96.0935 9.09668L96.4774 8.17333L96.4367 8.15639L96.3946 8.1431L96.0935 9.09668ZM94.3025 7.98926L93.5342 8.62945L93.5377 8.63361L94.3025 7.98926ZM94.1316 4.42773L93.2969 3.87689L93.2956 3.87889L94.1316 4.42773ZM95.403 3.39551L95.0146 2.47401L95.0119 2.47518L95.403 3.39551ZM100.838 3.04688H101.838V2.04688H100.838V3.04688ZM100.838 13V14H101.838V13H100.838ZM98.78 13H97.78V14H98.78V13ZM98.78 4.65332H99.78V3.65332H98.78V4.65332ZM96.1277 5.07031L96.8524 5.75937L96.1277 5.07031ZM95.9157 7.17578L95.0247 7.62972L95.0282 7.6366L95.9157 7.17578ZM96.4558 7.70898L96.0086 8.60341L96.0155 8.60688L96.0225 8.61024L96.4558 7.70898ZM99.4841 7.87988L100.484 7.87534L100.48 6.87988H99.4841V7.87988ZM97.5154 8.55664L98.4109 9.00165L99.1289 7.55664H97.5154V8.55664ZM95.3073 13V14H95.9271L96.2029 13.445L95.3073 13ZM93.0857 13L92.1907 12.5539L91.4699 14H93.0857V13ZM95.3005 8.55664V7.55664H94.6816L94.4055 8.11053L95.3005 8.55664ZM99.4909 8.38379H96.7839V10.3838H99.4909V8.38379ZM97.1679 8.46044L96.4774 8.17333L95.7095 10.02L96.3999 10.3071L97.1679 8.46044ZM96.3946 8.1431C95.7477 7.93881 95.3308 7.65776 95.0672 7.3449L93.5377 8.63361C94.1036 9.30513 94.8807 9.76236 95.7923 10.0503L96.3946 8.1431ZM95.0707 7.34907C94.8373 7.069 94.6872 6.68247 94.6872 6.10938H92.6872C92.6872 7.05842 92.9473 7.92514 93.5342 8.62944L95.0707 7.34907ZM94.6872 6.10938C94.6872 5.58732 94.8015 5.22932 94.9675 4.97658L93.2956 3.87889C92.8691 4.5285 92.6872 5.29158 92.6872 6.10938H94.6872ZM94.9662 4.97858C95.1491 4.70141 95.4116 4.47845 95.7942 4.31584L95.0119 2.47518C94.3008 2.77741 93.7156 3.2426 93.297 3.87689L94.9662 4.97858ZM95.7914 4.317C96.1921 4.14812 96.7079 4.04688 97.365 4.04688V2.04688C96.509 2.04688 95.7168 2.17805 95.0146 2.47402L95.7914 4.317ZM97.365 4.04688H100.838V2.04688H97.365V4.04688ZM99.8376 3.04688V13H101.838V3.04688H99.8376ZM100.838 12H98.78V14H100.838V12ZM99.78 13V4.65332H97.78V13H99.78ZM98.78 3.65332H97.365V5.65332H98.78V3.65332ZM97.365 3.65332C96.6576 3.65332 95.9287 3.82832 95.403 4.38125L96.8524 5.75937C96.8553 5.75631 96.9512 5.65332 97.365 5.65332V3.65332ZM95.403 4.38125C94.9099 4.89983 94.7312 5.57302 94.7312 6.25293H96.7312C96.7312 5.91201 96.8168 5.79678 96.8524 5.75937L95.403 4.38125ZM94.7312 6.25293C94.7312 6.7279 94.8082 7.20464 95.0247 7.62971L96.8068 6.72186C96.7772 6.66385 96.7312 6.52536 96.7312 6.25293H94.7312ZM95.0282 7.6366C95.2478 8.0594 95.5811 8.3897 96.0086 8.60341L96.903 6.81456C96.8565 6.79129 96.8298 6.76612 96.8032 6.71497L95.0282 7.6366ZM96.0225 8.61024C96.435 8.80856 96.8936 8.87988 97.3513 8.87988V6.87988C97.089 6.87988 96.9505 6.83727 96.8891 6.80773L96.0225 8.61024ZM97.3513 8.87988H99.4841V6.87988H97.3513V8.87988ZM98.4841 7.88443L98.4909 9.38833L100.491 9.37924L100.484 7.87534L98.4841 7.88443ZM96.6198 8.11163L94.4118 12.555L96.2029 13.445L98.4109 9.00165L96.6198 8.11163ZM95.3073 12H93.0857V14H95.3073V12ZM93.9806 13.4461L96.1955 9.00275L94.4055 8.11053L92.1907 12.5539L93.9806 13.4461ZM95.3005 9.55664H97.5154V7.55664H95.3005V9.55664ZM104.908 9.77344H103.908V13.4123L105.768 10.2845L104.908 9.77344ZM108.907 3.04688V2.04688H108.338L108.047 2.53585L108.907 3.04688ZM110.958 3.04688H111.958V2.04688H110.958V3.04688ZM110.958 13V14H111.958V13H110.958ZM108.907 13H107.907V14H108.907V13ZM108.907 6.27344H109.907V2.63453L108.047 5.76241L108.907 6.27344ZM104.908 13V14H105.477L105.768 13.511L104.908 13ZM102.857 13H101.857V14H102.857V13ZM102.857 3.04688V2.04688H101.857V3.04688H102.857ZM104.908 3.04688H105.908V2.04688H104.908V3.04688ZM107.902 0.435547V-0.564453H106.902V0.435547H107.902ZM109.304 0.435547H110.304V-0.564453H109.304V0.435547ZM109.01 1.48145L108.168 0.941319L108.166 0.94457L109.01 1.48145ZM108.189 2.19238L108.618 3.09593L108.627 3.09137L108.189 2.19238ZM105.188 1.88477L104.527 2.63485L104.531 2.63833L105.188 1.88477ZM104.553 0.435547V-0.564453H103.553V0.435547H104.553ZM105.947 0.435547H106.947V-0.564453H105.947V0.435547ZM106.166 1.07129L105.378 1.68656L105.382 1.69246L105.387 1.6983L106.166 1.07129ZM105.768 10.2845L109.767 3.5579L108.047 2.53585L104.048 9.26241L105.768 10.2845ZM108.907 4.04688H110.958V2.04688H108.907V4.04688ZM109.958 3.04688V13H111.958V3.04688H109.958ZM110.958 12H108.907V14H110.958V12ZM109.907 13V6.27344H107.907V13H109.907ZM108.047 5.76241L104.048 12.489L105.768 13.511L109.767 6.78446L108.047 5.76241ZM104.908 12H102.857V14H104.908V12ZM103.857 13V3.04688H101.857V13H103.857ZM102.857 4.04688H104.908V2.04688H102.857V4.04688ZM103.908 3.04688V9.77344H105.908V3.04688H103.908ZM107.902 1.43555H109.304V-0.564453H107.902V1.43555ZM108.304 0.435547C108.304 0.652002 108.252 0.810118 108.168 0.941323L109.851 2.02157C110.159 1.5421 110.304 1.00295 110.304 0.435547H108.304ZM108.166 0.94457C108.084 1.07285 107.959 1.19203 107.751 1.29339L108.627 3.09137C109.13 2.84638 109.552 2.4916 109.853 2.01832L108.166 0.94457ZM107.761 1.28888C107.566 1.38117 107.299 1.44531 106.931 1.44531V3.44531C107.53 3.44531 108.101 3.34084 108.618 3.09588L107.761 1.28888ZM106.931 1.44531C106.367 1.44531 106.044 1.30435 105.846 1.1312L104.531 2.63833C105.189 3.21258 106.028 3.44531 106.931 3.44531V1.44531ZM105.85 1.13469C105.653 0.961046 105.553 0.756774 105.553 0.435547H103.553C103.553 1.29922 103.876 2.06109 104.527 2.63484L105.85 1.13469ZM104.553 1.43555H105.947V-0.564453H104.553V1.43555ZM104.947 0.435547C104.947 0.895525 105.095 1.32399 105.378 1.68656L106.954 0.456018C106.949 0.449852 106.947 0.446331 106.947 0.445496C106.946 0.444729 106.947 0.445318 106.947 0.446853C106.948 0.448388 106.948 0.449093 106.948 0.448246C106.948 0.447323 106.947 0.443338 106.947 0.435547H104.947ZM105.387 1.6983C105.807 2.21995 106.424 2.35156 106.931 2.35156V0.351562C106.884 0.351562 106.851 0.348449 106.831 0.345379C106.811 0.342318 106.807 0.339812 106.814 0.342437C106.821 0.345253 106.841 0.353468 106.867 0.371218C106.893 0.389401 106.92 0.413897 106.945 0.44428L105.387 1.6983ZM106.931 2.35156C107.436 2.35156 108.057 2.21845 108.472 1.68656L106.895 0.456018C106.92 0.423807 106.949 0.39734 106.977 0.377331C107.005 0.357775 107.027 0.348224 107.037 0.344467C107.046 0.340918 107.044 0.342926 107.026 0.345717C107.008 0.348517 106.977 0.351562 106.931 0.351562V2.35156ZM108.472 1.68656C108.755 1.32399 108.902 0.895525 108.902 0.435547H106.902C106.902 0.443338 106.902 0.447323 106.901 0.448246C106.901 0.449093 106.901 0.448388 106.902 0.446853C106.902 0.445318 106.903 0.444729 106.902 0.445496C106.902 0.446331 106.9 0.449852 106.895 0.456018L108.472 1.68656ZM117.605 3.04688H118.605V2.04688H117.605V3.04688ZM117.605 13V14H118.605V13H117.605ZM115.561 13H114.561V14H115.561V13ZM115.561 3.04688V2.04688H114.561V3.04688H115.561ZM120.668 3.04688H121.668V2.04688H120.668V3.04688ZM120.668 4.65332V5.65332H121.668V4.65332H120.668ZM112.547 4.65332H111.547V5.65332H112.547V4.65332ZM112.547 3.04688V2.04688H111.547V3.04688H112.547ZM116.605 3.04688V13H118.605V3.04688H116.605ZM117.605 12H115.561V14H117.605V12ZM116.561 13V3.04688H114.561V13H116.561ZM115.561 4.04688H117.605V2.04688H115.561V4.04688ZM119.668 3.04688V4.65332H121.668V3.04688H119.668ZM120.668 3.65332H112.547V5.65332H120.668V3.65332ZM113.547 4.65332V3.04688H111.547V4.65332H113.547ZM112.547 4.04688H120.668V2.04688H112.547V4.04688ZM128.936 11.4004H129.936V10.4004H128.936V11.4004ZM128.936 13V14H129.936V13H128.936ZM123.638 13H122.638V14H123.638V13ZM123.638 11.4004V10.4004H122.638V11.4004H123.638ZM124.308 3.04688H125.308V2.04688H124.308V3.04688ZM124.308 13V14H125.308V13H124.308ZM122.257 13H121.257V14H122.257V13ZM122.257 3.04688V2.04688H121.257V3.04688H122.257ZM128.245 7.10059H129.245V6.10059H128.245V7.10059ZM128.245 8.65918V9.65918H129.245V8.65918H128.245ZM123.638 8.65918H122.638V9.65918H123.638V8.65918ZM123.638 7.10059V6.10059H122.638V7.10059H123.638ZM128.929 3.04688H129.929V2.04688H128.929V3.04688ZM128.929 4.65332V5.65332H129.929V4.65332H128.929ZM123.638 4.65332H122.638V5.65332H123.638V4.65332ZM123.638 3.04688V2.04688H122.638V3.04688H123.638ZM127.936 11.4004V13H129.936V11.4004H127.936ZM128.936 12H123.638V14H128.936V12ZM124.638 13V11.4004H122.638V13H124.638ZM123.638 12.4004H128.936V10.4004H123.638V12.4004ZM123.308 3.04688V13H125.308V3.04688H123.308ZM124.308 12H122.257V14H124.308V12ZM123.257 13V3.04688H121.257V13H123.257ZM122.257 4.04688H124.308V2.04688H122.257V4.04688ZM127.245 7.10059V8.65918H129.245V7.10059H127.245ZM128.245 7.65918H123.638V9.65918H128.245V7.65918ZM124.638 8.65918V7.10059H122.638V8.65918H124.638ZM123.638 8.10059H128.245V6.10059H123.638V8.10059ZM127.929 3.04688V4.65332H129.929V3.04688H127.929ZM128.929 3.65332H123.638V5.65332H128.929V3.65332ZM124.638 4.65332V3.04688H122.638V4.65332H124.638ZM123.638 4.04688H128.929V2.04688H123.638V4.04688ZM136.321 9.69824V8.69824H135.387L135.324 9.63022L136.321 9.69824ZM138.365 9.69824L139.363 9.75935L139.428 8.69824H138.365V9.69824ZM137.812 11.4824L136.966 10.9484L136.963 10.9538L137.812 11.4824ZM136.451 12.6992L136.004 11.8048L136.001 11.8062L136.451 12.6992ZM132.644 12.8086L132.24 13.7234L132.247 13.7265L132.644 12.8086ZM131.345 11.8516L130.585 12.5024L130.59 12.5071L131.345 11.8516ZM130.531 10.3477L129.578 10.6506L130.531 10.3477ZM130.538 5.70605L129.589 5.39202L129.587 5.39647L130.538 5.70605ZM131.372 4.19531L130.621 3.53504L130.617 3.53975L131.372 4.19531ZM136.472 3.35449L136.005 4.2388L136.008 4.24032L136.472 3.35449ZM137.805 4.59863L136.945 5.10987L136.949 5.1153L137.805 4.59863ZM138.379 6.40332V7.40332H139.478L139.375 6.30915L138.379 6.40332ZM136.328 6.40332L135.33 6.46005L135.383 7.40332H136.328V6.40332ZM136.089 5.38477L135.189 5.82034L135.192 5.82609L136.089 5.38477ZM135.467 4.74902L134.996 5.63138L135.005 5.63603L135.014 5.64051L135.467 4.74902ZM133.478 4.72168L133.03 3.82725L133.478 4.72168ZM132.445 6.28711L131.468 6.07374L131.467 6.08225L132.445 6.28711ZM132.439 9.73242L131.457 9.92634L131.458 9.92854L132.439 9.73242ZM132.794 10.7168L131.934 11.227L131.939 11.2356L131.944 11.2442L132.794 10.7168ZM133.423 11.3184L132.951 12.1998L132.96 12.2048L132.969 12.2096L133.423 11.3184ZM136.055 10.7031L135.182 10.2149L135.176 10.2264L136.055 10.7031ZM136.321 10.6982H138.365V8.69824H136.321V10.6982ZM137.367 9.63713C137.335 10.155 137.196 10.584 136.966 10.9484L138.657 12.0164C139.083 11.3417 139.313 10.5813 139.363 9.75935L137.367 9.63713ZM136.963 10.9538C136.743 11.3063 136.434 11.59 136.004 11.8048L136.898 13.5936C137.636 13.2251 138.233 12.6976 138.66 12.0111L136.963 10.9538ZM136.001 11.8062C135.593 12.0117 135.058 12.1367 134.359 12.1367V14.1367C135.292 14.1367 136.151 13.9701 136.901 13.5922L136.001 11.8062ZM134.359 12.1367C133.837 12.1367 133.403 12.0474 133.041 11.8907L132.247 13.7265C132.896 14.0073 133.606 14.1367 134.359 14.1367V12.1367ZM133.047 11.8938C132.675 11.7295 132.363 11.4987 132.1 11.196L130.59 12.5071C131.047 13.0339 131.6 13.441 132.24 13.7234L133.047 11.8938ZM132.104 11.2008C131.846 10.9002 131.636 10.5214 131.484 10.0448L129.578 10.6506C129.8 11.3497 130.132 11.9735 130.586 12.5024L132.104 11.2008ZM131.484 10.0448C131.334 9.57076 131.251 9.01664 131.251 8.37207H129.251C129.251 9.18583 129.355 9.94877 129.578 10.6506L131.484 10.0448ZM131.251 8.37207V7.68164H129.251V8.37207H131.251ZM131.251 7.68164C131.251 7.03925 131.335 6.48748 131.489 6.01564L129.587 5.39647C129.358 6.10041 129.251 6.86569 129.251 7.68164H131.251ZM131.488 6.02009C131.648 5.53619 131.865 5.15301 132.127 4.85087L130.617 3.53975C130.159 4.06704 129.821 4.69103 129.589 5.39202L131.488 6.02009ZM132.123 4.85557C132.392 4.55007 132.708 4.31786 133.082 4.15311L132.274 2.32345C131.635 2.60532 131.082 3.01113 130.621 3.53506L132.123 4.85557ZM133.082 4.15311C133.445 3.99279 133.87 3.90332 134.373 3.90332V1.90332C133.628 1.90332 132.922 2.03716 132.274 2.32345L133.082 4.15311ZM134.373 3.90332C135.085 3.90332 135.614 4.03271 136.005 4.2388L136.939 2.47019C136.19 2.07471 135.32 1.90332 134.373 1.90332V3.90332ZM136.008 4.24032C136.427 4.46007 136.731 4.74899 136.945 5.10986L138.664 4.08741C138.25 3.39099 137.665 2.85048 136.936 2.46866L136.008 4.24032ZM136.949 5.1153C137.183 5.50326 137.332 5.95779 137.383 6.49749L139.375 6.30915C139.298 5.4999 139.065 4.75129 138.661 4.08197L136.949 5.1153ZM138.379 5.40332H136.328V7.40332H138.379V5.40332ZM137.327 6.34659C137.298 5.84976 137.197 5.3715 136.986 4.94345L135.192 5.82609C135.254 5.95403 135.312 6.1548 135.33 6.46005L137.327 6.34659ZM136.989 4.9492C136.758 4.4713 136.394 4.09855 135.92 3.85754L135.014 5.64051C135.096 5.68205 135.147 5.73312 135.189 5.82033L136.989 4.9492ZM135.937 3.86667C135.467 3.61576 134.921 3.53027 134.373 3.53027V5.53027C134.736 5.53027 134.92 5.59062 134.996 5.63138L135.937 3.86667ZM134.373 3.53027C133.906 3.53027 133.449 3.61779 133.03 3.82725L133.925 5.61611C134.016 5.57036 134.156 5.53027 134.373 5.53027V3.53027ZM133.03 3.82725C132.605 4.03988 132.263 4.35748 132.003 4.74803L133.667 5.85743C133.753 5.72845 133.84 5.65868 133.925 5.61611L133.03 3.82725ZM132.003 4.74803C131.743 5.13751 131.574 5.59018 131.468 6.07375L133.422 6.50047C133.49 6.19107 133.58 5.98749 133.667 5.85743L132.003 4.74803ZM131.467 6.08225C131.367 6.559 131.322 7.09096 131.322 7.66797H133.322C133.322 7.18769 133.36 6.79907 133.424 6.49197L131.467 6.08225ZM131.322 7.66797V8.37207H133.322V7.66797H131.322ZM131.322 8.37207C131.322 8.93455 131.364 9.45533 131.457 9.92634L133.42 9.5385C133.358 9.22566 133.322 8.83954 133.322 8.37207H131.322ZM131.458 9.92854C131.552 10.3988 131.704 10.8392 131.934 11.227L133.654 10.2066C133.565 10.0566 133.48 9.84081 133.419 9.53631L131.458 9.92854ZM131.944 11.2442C132.194 11.6461 132.529 11.9741 132.951 12.1998L133.895 10.4369C133.806 10.3892 133.722 10.3161 133.644 10.1894L131.944 11.2442ZM132.969 12.2096C133.401 12.429 133.876 12.5166 134.359 12.5166V10.5166C134.114 10.5166 133.965 10.4721 133.876 10.4271L132.969 12.2096ZM134.359 12.5166C134.886 12.5166 135.403 12.4339 135.86 12.2089L134.978 10.4142C134.879 10.4626 134.69 10.5166 134.359 10.5166V12.5166ZM135.86 12.2089C136.322 11.982 136.688 11.6334 136.934 11.1799L135.176 10.2264C135.13 10.3106 135.072 10.3677 134.978 10.4142L135.86 12.2089ZM136.927 11.1913C137.169 10.7602 137.285 10.2717 137.319 9.76627L135.324 9.63022C135.303 9.92685 135.242 10.1082 135.182 10.215L136.927 11.1913ZM141.458 6.67676V5.67676H140.458V6.67676H141.458ZM145.806 7.06641L145.388 7.97501L145.806 7.06641ZM147.111 8.16016L146.273 8.70543L147.111 8.16016ZM147.31 11.0996L148.223 11.5077L148.224 11.5038L147.31 11.0996ZM146.551 12.1113L147.203 12.8691L147.204 12.8684L146.551 12.1113ZM140.118 13H139.118V14H140.118V13ZM140.118 3.04688V2.04688H139.118V3.04688H140.118ZM142.176 3.04688H143.176V2.04688H142.176V3.04688ZM142.176 11.4004H141.176V12.4004H142.176V11.4004ZM144.753 11.1816L144.257 10.3134L144.753 11.1816ZM145.327 10.6006L144.446 10.1274L144.443 10.1335L145.327 10.6006ZM145.327 9.02148L144.451 9.50274L144.456 9.51304L144.462 9.5232L145.327 9.02148ZM141.458 8.27637H140.458V9.27637H141.458V8.27637ZM141.458 7.67676H143.782V5.67676H141.458V7.67676ZM143.782 7.67676C144.458 7.67676 144.983 7.789 145.388 7.97501L146.223 6.1578C145.498 5.82428 144.674 5.67676 143.782 5.67676V7.67676ZM145.388 7.97501C145.801 8.16486 146.082 8.41163 146.273 8.70543L147.95 7.61488C147.53 6.96988 146.941 6.48748 146.223 6.1578L145.388 7.97501ZM146.273 8.70543C146.461 8.99428 146.569 9.34698 146.569 9.80078H148.569C148.569 9.00588 148.372 8.26484 147.95 7.61488L146.273 8.70543ZM146.569 9.80078C146.569 10.1504 146.506 10.4438 146.395 10.6954L148.224 11.5038C148.46 10.9716 148.569 10.3991 148.569 9.80078H146.569ZM146.397 10.6915C146.286 10.9401 146.123 11.1595 145.898 11.3543L147.204 12.8684C147.644 12.4889 147.987 12.0339 148.223 11.5077L146.397 10.6915ZM145.898 11.3536C145.681 11.5407 145.403 11.6997 145.045 11.8189L145.678 13.7163C146.25 13.5256 146.765 13.247 147.203 12.8691L145.898 11.3536ZM145.045 11.8189C144.7 11.9338 144.284 12 143.782 12V14C144.457 14 145.093 13.9112 145.678 13.7163L145.045 11.8189ZM143.782 12H140.118V14H143.782V12ZM141.118 13V3.04688H139.118V13H141.118ZM140.118 4.04688H142.176V2.04688H140.118V4.04688ZM141.176 3.04688V11.4004H143.176V3.04688H141.176ZM142.176 12.4004H143.782V10.4004H142.176V12.4004ZM143.782 12.4004C144.292 12.4004 144.801 12.3062 145.249 12.0499L144.257 10.3134C144.195 10.3488 144.056 10.4004 143.782 10.4004V12.4004ZM145.249 12.0499C145.656 11.8173 145.988 11.4899 146.211 11.0677L144.443 10.1335C144.411 10.1944 144.36 10.2543 144.257 10.3134L145.249 12.0499ZM146.208 11.0737C146.423 10.6733 146.526 10.2382 146.526 9.78711H144.526C144.526 9.92851 144.496 10.0356 144.446 10.1275L146.208 11.0737ZM146.526 9.78711C146.526 9.34159 146.419 8.91112 146.192 8.51977L144.462 9.5232C144.5 9.58758 144.526 9.66752 144.526 9.78711H146.526ZM146.204 8.54023C145.973 8.11922 145.629 7.802 145.213 7.58661L144.293 9.3626C144.388 9.41154 144.427 9.45891 144.451 9.50274L146.204 8.54023ZM145.213 7.58661C144.773 7.35904 144.279 7.27637 143.782 7.27637V9.27637C144.07 9.27637 144.222 9.32585 144.293 9.3626L145.213 7.58661ZM143.782 7.27637H141.458V9.27637H143.782V7.27637ZM142.458 8.27637V6.67676H140.458V8.27637H142.458Z" fill="black"/>
</g>
<defs>
<filter id="filter0_d_1_656" x="0.895508" y="0.435547" width="150.674" height="23.0117" filterUnits="userSpaceOnUse" color-interpolation-filters="sRGB">
<feFlood flood-opacity="0" result="BackgroundImageFix"/>
<feColorMatrix in="SourceAlpha" type="matrix" values="0 0 0 0 0 0 0 0 0 0 0 0 0 0 0 0 0 0 127 0" result="hardAlpha"/>
<feOffset dy="4"/>
<feGaussianBlur stdDeviation="2"/>
<feComposite in2="hardAlpha" operator="out"/>
<feColorMatrix type="matrix" values="0 0 0 0 0 0 0 0 0 0 0 0 0 0 0 0 0 0 0.25 0"/>
<feBlend mode="normal" in2="BackgroundImageFix" result="effect1_dropShadow_1_656"/>
<feBlend mode="normal" in="SourceGraphic" in2="effect1_dropShadow_1_656" result="shape"/>
</filter>
</defs>
</svg>
