<svg aria-hidden="true" xmlns="http://www.w3.org/2000/svg">
    <defs>
        <symbol id="icon-background" viewBox="0 0 85 32">
            <path d="M0 0h85.333v32H0V0z" />
        </symbol>
        <symbol id="icon-untitled" viewBox="0 0 203 32">
            <path
                d="M17.328 4.063v13.271h-2.734V6.205H9.262v11.129H6.528V4.063h10.801zm8.116 8.54h-3.381V10.47h3.381c.523 0 .948-.085 1.276-.255.328-.176.568-.419.72-.729s.228-.659.228-1.048c0-.395-.076-.763-.228-1.103s-.392-.614-.72-.82-.753-.31-1.276-.31H23.01v11.129h-2.734V4.063h5.168c1.039 0 1.929.188 2.671.565.747.371 1.319.884 1.714 1.54s.592 1.407.592 2.251c0 .857-.197 1.598-.592 2.224s-.966 1.109-1.714 1.449c-.741.34-1.631.51-2.671.51zm10.057.428 5.332-8.969h2.734v13.271h-2.734V8.364l-5.332 8.969h-2.734V4.062h2.734v8.969zm18.689-.1h2.725c-.055.893-.301 1.686-.738 2.379-.431.693-1.036 1.234-1.814 1.622-.772.389-1.701.583-2.789.583-.851 0-1.613-.146-2.288-.437a4.867 4.867 0 0 1-1.732-1.276c-.474-.553-.836-1.221-1.085-2.005s-.374-1.662-.374-2.634v-.921c0-.972.128-1.85.383-2.634.261-.79.632-1.461 1.112-2.014.486-.553 1.066-.978 1.741-1.276s1.428-.447 2.26-.447c1.106 0 2.039.201 2.798.602a4.377 4.377 0 0 1 1.777 1.659c.425.705.681 1.507.766 2.406h-2.734c-.03-.535-.137-.987-.319-1.358a1.813 1.813 0 0 0-.829-.848c-.365-.194-.851-.292-1.458-.292-.456 0-.854.085-1.194.255s-.626.428-.857.775c-.231.346-.404.784-.52 1.313a9.11 9.11 0 0 0-.164 1.841v.939c0 .687.052 1.291.155 1.814.103.517.261.954.474 1.313.219.352.498.62.839.802.346.176.763.264 1.249.264.571 0 1.042-.091 1.413-.273s.653-.453.848-.811c.201-.359.319-.805.355-1.34zm15.982-2.543v.629c0 1.009-.137 1.914-.41 2.716s-.659 1.486-1.158 2.051a5.024 5.024 0 0 1-1.786 1.285c-.687.298-1.449.447-2.288.447-.833 0-1.595-.149-2.288-.447a5.135 5.135 0 0 1-1.787-1.285c-.504-.565-.896-1.249-1.176-2.051-.273-.802-.41-1.707-.41-2.716v-.629c0-1.015.137-1.92.41-2.716.273-.802.659-1.486 1.157-2.051a5.063 5.063 0 0 1 1.787-1.294c.693-.298 1.455-.447 2.288-.447.839 0 1.601.149 2.288.447a4.978 4.978 0 0 1 1.787 1.294c.504.565.893 1.249 1.167 2.051.279.796.419 1.701.419 2.716zm-2.761.629v-.647c0-.705-.064-1.325-.191-1.859s-.316-.984-.565-1.349a2.434 2.434 0 0 0-.911-.82c-.359-.188-.769-.283-1.231-.283s-.872.094-1.23.283a2.457 2.457 0 0 0-.902.82c-.243.365-.428.814-.556 1.349s-.191 1.155-.191 1.859v.647c0 .699.064 1.319.191 1.859.128.535.316.987.565 1.358.249.365.553.641.911.829s.769.283 1.231.283c.462 0 .872-.094 1.23-.283s.659-.465.902-.829c.243-.371.428-.823.556-1.358a8.12 8.12 0 0 0 .191-1.859zm14.195 4.184v2.133h-7.064v-2.133h7.064zM75.435 4.063v13.271h-2.734V4.063h2.734zm5.25 5.404v2.078h-6.143V9.467h6.143zm.912-5.404v2.142h-7.055V4.063h7.055zm12.691 11.138v2.133h-9.561v-2.133h9.561zm-8.75 0v5.387h-2.57l-.146-5.387h2.716zm10.719 0-.237 5.396h-2.507v-5.396h2.744zM92.785 4.063v2.142h-6.389V4.063h6.389zm1.95 0v13.271H92.01V4.063h2.725zm-8.677 0h2.734l-.355 5.405a17.306 17.306 0 0 1-.292 2.37 11.404 11.404 0 0 1-.492 1.796 8.042 8.042 0 0 1-.629 1.358 6.708 6.708 0 0 1-.729 1.003c-.255.28-.513.529-.775.747-.261.213-.517.41-.766.592h-1.568v-2.133h.611a3.63 3.63 0 0 0 .556-.602c.201-.255.389-.599.565-1.03.182-.438.34-.991.474-1.659.14-.668.243-1.483.31-2.443l.355-5.405zm14.806 8.968 5.332-8.969h2.734v13.271h-2.734V8.364l-5.332 8.969H98.13V4.062h2.734v8.969zm19.847-3.564V11.6h-6.927V9.467h6.927zm-6.116-5.404v13.271h-2.734V4.063h2.734zm8.066 0v13.271h-2.725V4.063h2.725zm9.994 8.449h-3.609l-.921-.383c-1.039-.328-1.835-.82-2.388-1.477-.547-.656-.82-1.492-.82-2.506 0-.893.197-1.641.593-2.242.401-.608.966-1.066 1.695-1.376.735-.31 1.607-.465 2.616-.465h4.631v13.271h-2.744V6.205h-1.887c-.747 0-1.297.185-1.65.556s-.529.896-.529 1.577c0 .498.082.908.246 1.23.164.316.404.553.72.711.316.152.714.228 1.194.228h2.844l.009 2.005zm-2.634-1.103-2.944 5.924h-2.962l2.953-5.924h2.953zm9.856 1.622 5.332-8.969h2.735v13.271h-2.735V8.364l-5.332 8.969h-2.735V4.062h2.735v8.969zm3.992-12.45h1.869c0 .523-.131.987-.392 1.395-.256.401-.62.717-1.095.948-.473.225-1.032.337-1.677.337-.977 0-1.752-.249-2.324-.747-.565-.498-.847-1.142-.847-1.932h1.859c0 .316.097.599.292.848.2.249.54.374 1.02.374.475 0 .809-.125 1.003-.374.195-.249.292-.532.292-.848zm12.938 3.482v13.271h-2.725V4.063h2.725zm4.084 0v2.142h-10.828V4.063h10.828zm11.024 11.138v2.133h-7.064v-2.133h7.064zm-6.171-11.138v13.271h-2.735V4.063h2.735zm5.249 5.404v2.078h-6.143V9.467h6.143zm.912-5.404v2.142h-7.055V4.063h7.055zm9.856 8.868h2.725c-.055.893-.3 1.686-.737 2.379-.432.693-1.036 1.234-1.815 1.622-.772.389-1.701.583-2.789.583-.851 0-1.613-.146-2.287-.437a4.867 4.867 0 0 1-1.732-1.276c-.475-.553-.836-1.221-1.085-2.005s-.373-1.662-.373-2.634v-.921c0-.972.128-1.85.383-2.634.261-.79.632-1.461 1.112-2.014.487-.553 1.067-.978 1.741-1.276s1.428-.447 2.26-.447c1.107 0 2.039.201 2.799.602a4.39 4.39 0 0 1 1.777 1.659c.425.705.68 1.507.765 2.406h-2.735c-.031-.535-.136-.987-.319-1.358a1.818 1.818 0 0 0-.829-.848c-.365-.194-.851-.292-1.459-.292-.456 0-.853.085-1.193.255-.341.17-.627.428-.857.775s-.404.784-.52 1.313a9.11 9.11 0 0 0-.164 1.841v.939c0 .687.052 1.291.156 1.814.103.517.26.954.473 1.313.219.352.499.62.839.802.347.176.763.264 1.248.264.572 0 1.043-.091 1.413-.273s.653-.453.848-.811c.2-.359.319-.805.355-1.34zm6.85-4.029h3.099c1.045 0 1.945.173 2.699.52s1.333.832 1.74 1.458c.408.626.611 1.355.611 2.188 0 .632-.115 1.209-.345 1.732a3.827 3.827 0 0 1-1.012 1.349 4.654 4.654 0 0 1-1.587.875c-.619.207-1.321.31-2.105.31h-4.885V4.063h2.744v11.138h2.141c.523 0 .955-.097 1.295-.292s.596-.453.765-.775a2.26 2.26 0 0 0 .265-1.085 2 2 0 0 0-.265-1.021c-.169-.31-.425-.553-.765-.729s-.772-.264-1.295-.264h-3.099V8.902z" />
            <path
                d="M17.328 4.063h1.333V2.73h-1.333v1.333zm0 13.27v1.333h1.333v-1.333h-1.333zm-2.734 0h-1.333v1.333h1.333v-1.333zm0-11.129h1.333V4.871h-1.333v1.333zm-5.332 0V4.871H7.929v1.333h1.333zm0 11.129v1.333h1.333v-1.333H9.262zm-2.735 0H5.194v1.333h1.333v-1.333zm0-13.27V2.73H5.194v1.333h1.333zm9.468 0v13.271h2.667V4.063h-2.667zM17.328 16h-2.734v2.667h2.734V16zm-1.401 1.333V6.204H13.26v11.129h2.667zM14.594 4.871H9.262v2.667h5.332V4.871zM7.928 6.204v11.129h2.667V6.204H7.928zM9.262 16H6.528v2.667h2.734V16zm-1.401 1.333V4.062H5.194v13.271h2.667zM6.527 5.396h10.801V2.729H6.527v2.667zm15.536 7.207H20.73v1.333h1.333v-1.333zm0-2.133V9.137H20.73v1.333h1.333zm4.657-.255.614 1.184.009-.004.008-.005-.631-1.175zm0-3.701zm-3.709-.31V4.871h-1.333v1.333h1.333zm0 11.129v1.333h1.333v-1.333h-1.333zm-2.735 0h-1.333v1.333h1.333v-1.333zm0-13.27V2.73h-1.333v1.333h1.333zm7.839.565-.604 1.189.012.006.592-1.194zm1.713 1.54zm0 4.475zm-1.713 1.449-.552-1.213-.004.002.556 1.212zm-2.671-.822h-3.381v2.667h3.381V11.27zm-2.048 1.333V10.47h-2.667v2.133h2.667zm-1.333-.8h3.381V9.136h-3.381v2.667zm3.381 0c.653 0 1.31-.104 1.89-.405l-1.227-2.367c-.076.04-.27.106-.662.106v2.667zm1.907-.414a2.975 2.975 0 0 0 1.287-1.317l-2.395-1.174c-.019.039-.051.086-.154.141l1.262 2.349zm1.286-1.316a3.686 3.686 0 0 0 .364-1.635h-2.667c0 .211-.04.356-.092.461l2.395 1.174zm.364-1.635a4 4 0 0 0-.344-1.646l-2.435 1.087c.071.159.112.34.112.559h2.667zm-.343-1.647a3.173 3.173 0 0 0-1.227-1.405L26.01 7.643a.506.506 0 0 1 .213.236l2.435-1.087zm-1.227-1.405c-.603-.38-1.297-.515-1.986-.515v2.667c.356 0 .512.071.566.105l1.421-2.257zm-1.987-.515H23.01v2.667h2.434V4.871zm-3.767 1.333v11.129h2.667V6.204h-2.667zM23.011 16h-2.734v2.667h2.734V16zm-1.402 1.333V4.062h-2.667v13.271h2.667zM20.276 5.396h5.168V2.729h-5.168v2.667zm5.168 0c.88 0 1.553.16 2.067.42l1.208-2.377c-.969-.493-2.077-.71-3.275-.71v2.667zm2.078.426c.541.268.911.615 1.164 1.033l2.285-1.375c-.538-.894-1.309-1.574-2.264-2.047l-1.185 2.389zm1.164 1.034c.257.428.401.936.401 1.564h2.667c0-1.061-.251-2.054-.783-2.939l-2.285 1.375zm.401 1.563c0 .645-.146 1.131-.387 1.512l2.255 1.423c.549-.871.798-1.867.798-2.936h-2.667zm-.386 1.513c-.241.382-.601.702-1.138.947l1.105 2.427c.957-.436 1.74-1.082 2.289-1.951l-2.255-1.423zm-1.143.949c-.526.241-1.216.389-2.114.389v2.667c1.18 0 2.27-.193 3.227-.632l-1.113-2.424zm7.943 2.15h-1.333v4.852l2.479-4.17-1.146-.681zm5.333-8.968V2.73h-.759l-.388.652 1.146.681zm2.734 0h1.333V2.73h-1.333v1.333zm0 13.27v1.333h1.333v-1.333h-1.333zm-2.734 0h-1.333v1.333h1.333v-1.333zm0-8.968h1.333V3.513l-2.479 4.17 1.146.681zm-5.333 8.968v1.333h.759l.388-.652-1.146-.681zm-2.734 0h-1.333v1.333h1.333v-1.333zm0-13.27V2.73h-1.333v1.333h1.333zm2.734 0h1.333V2.73h-1.333v1.333zm1.147 9.65 5.332-8.969-2.292-1.363-5.332 8.969 2.292 1.363zm4.186-8.317h2.734V2.729h-2.734v2.667zm1.401-1.333v13.271h2.667V4.063h-2.667zM43.568 16h-2.734v2.667h2.734V16zm-1.401 1.333V8.364H39.5v8.969h2.667zm-2.48-9.65-5.332 8.969 2.292 1.363 5.332-8.969-2.292-1.363zM35.501 16h-2.734v2.667h2.734V16zm-1.4 1.333V4.062h-2.667v13.271h2.667zM32.767 5.396h2.734V2.729h-2.734v2.667zm1.401-1.333v8.969h2.667V4.063h-2.667zm20.022 8.868v-1.333h-1.245l-.085 1.243 1.33.091zm2.726 0 1.331.081.087-1.415h-1.417v1.333zm-.739 2.379-1.127-.712-.004.007 1.132.705zm-1.813 1.622-.596-1.193-.004.002.6 1.191zm-5.077.146-.539 1.22.009.004.529-1.224zm-1.732-1.276-1.012.868.005.006 1.007-.874zm-1.085-2.005zm.009-6.189-1.266-.419-.002.006 1.268.413zm1.112-2.014-1.001-.88-.005.006 1.007.874zm6.8-1.121-.623 1.179.004.002.619-1.181zm1.777 1.658-1.146.682.004.007 1.142-.689zm.766 2.407v1.333h1.465l-.138-1.459-1.327.126zm-2.735 0-1.331.076.071 1.258h1.26V8.539zm-.318-1.358-1.2.581.004.008 1.197-.588zm-.83-.848-.627 1.176.012.006.012.006.604-1.189zm-2.652-.036zm-1.377 2.087-1.303-.284-.002.011 1.305.273zm-.009 4.594-1.308.259.001.003 1.307-.261zm.474 1.312-1.147.68.007.011.007.011 1.133-.703zm.839.802-.63 1.175.012.007.013.006.605-1.188zm3.509-.82-1.164-.651-.008.015 1.172.636zm.355-.007h2.725v-2.667H54.19v2.667zm1.395-1.414c-.042.691-.228 1.262-.535 1.748l2.255 1.424c.568-.9.875-1.913.942-3.009l-2.662-.163zm-.539 1.755c-.293.47-.706.848-1.278 1.135l1.193 2.385c.983-.491 1.779-1.195 2.349-2.11l-2.264-1.41zm-1.282 1.137c-.544.274-1.257.441-2.189.441v2.667c1.243 0 2.389-.222 3.389-.726l-1.2-2.381zm-2.189.44c-.697 0-1.275-.119-1.759-.328l-1.058 2.448c.866.374 1.813.547 2.817.547v-2.667zm-1.75-.324a3.537 3.537 0 0 1-1.263-.93l-2.014 1.748a6.213 6.213 0 0 0 2.2 1.622l1.077-2.439zm-1.258-.924c-.343-.401-.624-.906-.826-1.541l-2.541.808c.296.932.739 1.764 1.343 2.469l2.025-1.735zm-.826-1.541c-.201-.632-.311-1.371-.311-2.23h-2.667c0 1.085.139 2.102.436 3.038l2.541-.808zm-.311-2.23v-.921h-2.667v.921h2.667zm0-.921c0-.857.113-1.592.317-2.221l-2.536-.826c-.306.939-.448 1.959-.448 3.047h2.667zm.315-2.215c.213-.645.503-1.156.853-1.559L46.584 4.72c-.61.703-1.062 1.535-1.371 2.47l2.532.837zm.848-1.553c.358-.407.78-.717 1.278-.937l-1.077-2.44a6.3 6.3 0 0 0-2.204 1.615l2.003 1.761zm1.278-.937c.484-.214 1.051-.333 1.722-.333V2.537c-.994 0-1.934.178-2.799.56l1.077 2.44zm1.722-.333c.949 0 1.655.173 2.176.447l1.245-2.358c-.999-.527-2.158-.756-3.421-.756v2.667zm2.179.45c.559.293.964.678 1.25 1.159l2.292-1.363c-.552-.929-1.333-1.649-2.305-2.158l-1.237 2.362zm1.255 1.166c.312.517.512 1.123.58 1.843l2.655-.251c-.102-1.079-.413-2.077-.951-2.97L55.028 6.82zm1.907.384H54.2v2.667h2.734V7.204zm-1.403 1.258c-.038-.662-.173-1.3-.454-1.871l-2.393 1.177c.084.171.161.438.184.845l2.662-.151zm-.45-1.863a3.144 3.144 0 0 0-1.426-1.456L52.447 7.52a.474.474 0 0 1 .233.24l2.401-1.162zm-1.402-1.443c-.627-.335-1.355-.449-2.086-.449v2.667c.484 0 .729.08.831.135l1.255-2.353zm-2.086-.449c-.622 0-1.232.117-1.79.396l1.193 2.385c.122-.061.308-.114.598-.114V4.707zm-1.791.396a3.55 3.55 0 0 0-1.37 1.228l2.219 1.479a.89.89 0 0 1 .344-.322l-1.193-2.385zm-1.369 1.228c-.346.519-.572 1.123-.713 1.768l2.605.569c.09-.413.211-.684.326-.857l-2.219-1.479zm-.716 1.779c-.133.636-.192 1.345-.192 2.114h2.667c0-.64.05-1.159.136-1.568l-2.61-.546zm-.192 2.114v.939h2.667v-.939h-2.667zm0 .939c0 .75.056 1.444.18 2.072l2.616-.517a8.153 8.153 0 0 1-.13-1.555h-2.667zm.181 2.075c.125.627.328 1.214.635 1.731l2.293-1.361c-.119-.2-.232-.488-.313-.894l-2.615.523zm.648 1.754c.333.536.78.973 1.342 1.274l1.259-2.351a.878.878 0 0 1-.335-.33l-2.266 1.406zm1.367 1.287c.575.293 1.209.409 1.853.409v-2.667c-.328 0-.526-.059-.644-.119l-1.209 2.377zm1.854.41c.702 0 1.391-.11 2.001-.41l-1.177-2.393c-.131.065-.383.137-.824.137v2.667zm2.001-.41a3.223 3.223 0 0 0 1.431-1.372l-2.344-1.271a.559.559 0 0 1-.264.25l1.177 2.393zm1.423-1.357c.321-.575.476-1.226.522-1.9l-2.661-.181c-.027.396-.109.637-.189.78l2.327 1.302zm13.606.862.995.887.005-.005-1-.882zm-1.787 1.285-.527-1.225-.004.002.53 1.223zm-4.575 0-.531 1.223.004.002.527-1.225zm-1.787-1.285-.995.888.005.005.99-.893zm-1.176-2.051-1.262.43.003.009 1.259-.439zm0-6.061 1.261.433.001-.003-1.262-.43zm1.158-2.051-.995-.888-.005.006 1 .882zm1.786-1.294-.527-1.225-.004.002.531 1.223zm4.576 0-.53 1.223.004.002.527-1.225zm1.786 1.294-1 .882.005.006.995-.888zm1.167 2.051-1.262.43.004.011 1.258-.442zm-2.534.838zm-1.476-2.169-.62 1.18.016.008.604-1.188zm-2.461 0 .613 1.184.008-.004-.62-1.18zm-.903.82-1.101-.752-.009.013 1.109.74zm-.556 5.715-1.298.306.001.003 1.297-.309zm.565 1.358-1.107.744.006.009 1.101-.752zm.912.83zm2.461 0zm.902-.83 1.109.74.005-.009-1.115-.731zm.556-1.358 1.297.309.001-.003-1.298-.306zm1.62-2.488v.629h2.667v-.629h-2.667zm0 .629c0 .889-.121 1.646-.339 2.286l2.524.861c.329-.964.481-2.018.481-3.146h-2.667zm-.339 2.286c-.224.656-.527 1.181-.896 1.599l2 1.764c.628-.712 1.096-1.555 1.419-2.502l-2.524-.861zm-.891 1.594a3.678 3.678 0 0 1-1.318.947l1.053 2.45a6.34 6.34 0 0 0 2.255-1.623l-1.991-1.774zm-1.321.949c-.5.217-1.079.337-1.757.337v2.667c.999 0 1.945-.178 2.818-.557l-1.061-2.447zm-1.758.336c-.67 0-1.251-.119-1.761-.338l-1.053 2.45c.876.376 1.82.555 2.814.555v-2.667zm-1.757-.336a3.786 3.786 0 0 1-1.327-.955l-1.98 1.786a6.45 6.45 0 0 0 2.246 1.615l1.061-2.447zm-1.322-.95c-.374-.419-.683-.945-.911-1.602l-2.518.878c.33.948.806 1.789 1.44 2.5l1.99-1.776zm-.909-1.593c-.218-.64-.339-1.396-.339-2.286h-2.667c0 1.128.153 2.182.481 3.146l2.524-.861zm-.338-2.286v-.629h-2.667v.629h2.667zm0-.629c0-.897.121-1.652.338-2.283l-2.522-.866c-.33.961-.482 2.017-.482 3.149h2.667zm.338-2.286c.224-.656.527-1.181.896-1.599l-2-1.764c-.628.712-1.096 1.555-1.419 2.502l2.524.86zm.891-1.593a3.74 3.74 0 0 1 1.322-.959l-1.061-2.447a6.415 6.415 0 0 0-2.251 1.63l1.989 1.776zm1.318-.957c.51-.219 1.091-.338 1.761-.338V2.547c-.995 0-1.939.179-2.814.555l1.053 2.45zm1.761-.338c.678 0 1.257.12 1.757.337l1.061-2.447c-.873-.379-1.819-.557-2.818-.557v2.667zm1.761.338c.512.22.945.534 1.313.951l2-1.764a6.296 6.296 0 0 0-2.26-1.637l-1.053 2.45zm1.319.957c.372.417.677.94.899 1.593l2.524-.86c-.324-.951-.797-1.795-1.434-2.508L67.592 6.51zm.903 1.605c.221.629.344 1.38.344 2.274h2.667c0-1.136-.156-2.194-.495-3.158l-2.516.883zm.249 2.903v-.647h-2.667v.647h2.667zm0-.647c0-.781-.07-1.509-.228-2.169l-2.594.619c.098.41.155.922.155 1.55h2.667zm-.228-2.169c-.157-.656-.401-1.264-.761-1.792l-2.202 1.505c.138.202.27.492.369.906l2.594-.619zm-.761-1.792a3.779 3.779 0 0 0-1.408-1.257l-1.209 2.377c.14.071.279.186.415.384l2.202-1.505zm-1.392-1.248a3.938 3.938 0 0 0-1.851-.436v2.667c.276 0 .468.055.61.13l1.24-2.361zm-1.851-.436c-.647 0-1.275.133-1.851.436l1.24 2.361c.142-.075.334-.13.61-.13V4.725zm-1.843.432a3.798 3.798 0 0 0-1.391 1.252l2.202 1.505c.139-.203.279-.318.414-.388l-1.225-2.369zM61.27 6.422c-.349.524-.588 1.128-.743 1.779l2.594.619c.1-.419.232-.714.368-.919L61.27 6.422zm-.744 1.779a9.407 9.407 0 0 0-.228 2.169h2.667c0-.628.057-1.14.155-1.55l-2.594-.619zm-.227 2.169v.647h2.667v-.647h-2.667zm0 .647c0 .777.071 1.503.227 2.166l2.595-.612a6.806 6.806 0 0 1-.156-1.553h-2.667zm.227 2.169c.156.655.4 1.263.755 1.792l2.213-1.488c-.142-.212-.276-.509-.375-.924l-2.594.619zm.762 1.801c.361.528.824.959 1.392 1.257l1.24-2.361a1.192 1.192 0 0 1-.431-.401l-2.202 1.505zm1.392 1.257a3.938 3.938 0 0 0 1.851.436v-2.667c-.276 0-.468-.055-.61-.13l-1.24 2.361zm1.85.436c.647 0 1.275-.133 1.851-.436l-1.24-2.361c-.142.075-.334.13-.61.13v2.667zm1.851-.436a3.773 3.773 0 0 0 1.391-1.27l-2.219-1.479c-.13.195-.268.312-.413.389l1.24 2.361zm1.397-1.279c.345-.526.583-1.13.738-1.78l-2.594-.619c-.1.419-.233.722-.374.936l2.23 1.462zm.739-1.783a9.43 9.43 0 0 0 .227-2.166h-2.667a6.8 6.8 0 0 1-.156 1.553l2.595.612zm13.089 2.019h1.333v-1.333h-1.333v1.333zm0 2.132v1.333h1.333v-1.333h-1.333zm-7.064 0h-1.333v1.333h1.333v-1.333zm0-2.132v-1.333h-1.333v1.333h1.333zm.893-11.138h1.333V2.73h-1.333v1.333zm0 13.27v1.333h1.333v-1.333h-1.333zm-2.734 0h-1.333v1.333h1.333v-1.333zm0-13.27V2.73h-1.333v1.333h1.333zm7.984 5.404h1.333V8.134h-1.333v1.333zm0 2.079v1.333h1.333v-1.333h-1.333zm-6.143 0h-1.333v1.333h1.333v-1.333zm0-2.079V8.134h-1.333v1.333h1.333zm7.055-5.404h1.333V2.73h-1.333v1.333zm0 2.141v1.333h1.333V6.204h-1.333zm-7.055 0h-1.333v1.333h1.333V6.204zm0-2.141V2.73h-1.333v1.333h1.333zm5.731 11.138v2.133h2.667v-2.133h-2.667zm1.333.799h-7.064v2.667h7.064V16zm-5.731 1.333V15.2h-2.667v2.133h2.667zm-1.333-.799h7.064v-2.667h-7.064v2.667zm-.44-12.471v13.271h2.667V4.063h-2.667zM75.435 16h-2.734v2.667h2.734V16zm-1.401 1.333V4.062h-2.667v13.271h2.667zM72.701 5.396h2.734V2.729h-2.734v2.667zm6.651 4.071v2.078h2.667V9.467h-2.667zm1.333.745h-6.143v2.667h6.143v-2.667zm-4.81 1.334V9.468h-2.667v2.078h2.667zm-1.333-.745h6.143V8.134h-6.143v2.667zm5.722-6.738v2.142h2.667V4.063h-2.667zm1.333.808h-7.055v2.667h7.055V4.871zm-5.722 1.333V4.062h-2.667v2.142h2.667zm-1.333-.808h7.055V2.729h-7.055v2.667zm19.746 9.805h1.333v-1.333h-1.333v1.333zm0 2.132v1.333h1.333v-1.333h-1.333zm-9.561 0h-1.333v1.333h1.333v-1.333zm0-2.132v-1.333h-1.333v1.333h1.333zm.811 0h1.333v-1.333h-1.333v1.333zm0 5.386v1.333h1.333v-1.333h-1.333zm-2.57 0-1.333.036.035 1.297h1.298v-1.333zm-.146-5.386v-1.333h-1.37l.037 1.369 1.333-.036zm13.435 0 1.332.059.061-1.392h-1.393v1.333zm-.237 5.395v1.333h1.276l.056-1.275-1.332-.058zm-2.506 0h-1.333v1.333h1.333v-1.333zm0-5.395v-1.333h-1.333v1.333h1.333zm-.729-11.138h1.333V2.73h-1.333v1.333zm0 2.141v1.333h1.333V6.204h-1.333zm-6.39 0h-1.333v1.333h1.333V6.204zm0-2.141V2.73h-1.333v1.333h1.333zm8.34 0h1.333V2.73h-1.333v1.333zm0 13.27v1.333h1.333v-1.333h-1.333zm-2.725 0h-1.333v1.333h1.333v-1.333zm0-13.27V2.73h-1.333v1.333h1.333zm-5.952 0V2.73h-1.249l-.082 1.246 1.33.087zm2.734 0 1.331.088.093-1.421h-1.424v1.333zm-.355 5.404-1.33-.088v.006l1.331.081zm-.292 2.37-1.307-.266-.002.009 1.308.257zm-.492 1.796-1.248-.47-.005.013 1.253.457zm-.629 1.358 1.142.689.005-.008-1.147-.681zm-.729 1.002.985.899.009-.011-.994-.888zm-.775.748.842 1.034.014-.012-.856-1.022zm-.765.592v1.333h.436l.352-.257-.787-1.076zm-1.568 0h-1.333v1.333h1.333v-1.333zm0-2.132v-1.333h-1.333v1.333h1.333zm.61 0v1.333h.48l.37-.306-.85-1.027zm.556-.602-1.048-.824-.006.008-.006.008 1.061.808zm.566-1.03-1.231-.513-.003.009 1.234.504zm.474-1.659-1.305-.273-.002.011 1.307.261zm.309-2.443 1.33.093v-.005l-1.331-.088zm7.253 5.734v2.133h2.667v-2.133h-2.667zm1.333.799h-9.561v2.667h9.561V16zm-8.227 1.333V15.2h-2.667v2.133h2.667zm-1.334-.799h9.561v-2.667h-9.561v2.667zm-.522-1.333v5.387h2.667v-5.387h-2.667zm1.333 4.053h-2.57v2.667h2.57v-2.667zm-1.237 1.297-.146-5.387-2.666.072.146 5.387 2.666-.072zm-1.479-4.017h2.716v-2.667h-2.716v2.667zm12.103-1.392-.237 5.396 2.664.117.237-5.396-2.664-.117zm1.095 4.121h-2.507v2.667h2.507v-2.667zm-1.173 1.333V15.2H92.18v5.396h2.667zm-1.333-4.062h2.744v-2.667h-2.744v2.667zM91.451 4.063v2.142h2.667V4.063h-2.667zm1.334.808h-6.389v2.667h6.389V4.871zm-5.056 1.333V4.062h-2.667v2.142h2.667zm-1.334-.808h6.389V2.729h-6.389v2.667zm7.007-1.333v13.271h2.667V4.063h-2.667zM94.735 16H92.01v2.667h2.725V16zm-1.392 1.333V4.062h-2.667v13.271h2.667zM92.01 5.396h2.725V2.729H92.01v2.667zm-5.952 0h2.734V2.729h-2.734v2.667zm1.404-1.421-.355 5.405 2.661.175.355-5.405-2.661-.175zm-.356 5.411a16.08 16.08 0 0 1-.267 2.185l2.613.532c.155-.761.258-1.615.316-2.554l-2.662-.163zm-.269 2.194a9.991 9.991 0 0 1-.432 1.583l2.496.94c.226-.601.408-1.273.553-2.008l-2.617-.514zm-.437 1.596c-.166.455-.342.83-.523 1.134l2.293 1.361a9.429 9.429 0 0 0 .735-1.582l-2.505-.914zm-.518 1.126c-.195.323-.39.588-.582.803l1.988 1.777c.319-.357.61-.76.877-1.202l-2.283-1.377zm-.572.792a6.76 6.76 0 0 1-.646.624l1.712 2.045a9.44 9.44 0 0 0 .903-.871l-1.969-1.798zm-.632.613c-.245.199-.482.383-.711.551l1.575 2.152c.269-.197.543-.409.82-.634l-1.683-2.068zm.077.293h-1.568v2.667h1.568V16zm-.235 1.333V15.2h-2.667v2.133h2.667zm-1.333-.799h.611v-2.667h-.611v2.667zm1.461-.306c.279-.231.533-.514.766-.821l-2.121-1.616a2.392 2.392 0 0 1-.345.382l1.7 2.054zm.754-.805c.302-.385.547-.849.751-1.349l-2.469-1.008c-.148.362-.281.585-.379.71l2.097 1.647zm.747-1.341c.227-.545.407-1.19.551-1.91l-2.615-.523c-.123.616-.26 1.078-.397 1.408l2.461 1.026zm.549-1.899c.156-.746.265-1.625.335-2.623l-2.66-.185c-.064.922-.161 1.672-.285 2.262l2.61.546zm.335-2.628.355-5.405-2.661-.175-.355 5.405 2.661.175zm13.831 3.476h-1.333v4.852l2.479-4.17-1.146-.681zm5.332-8.968V2.73h-.758l-.388.652 1.146.681zm2.734 0h1.333V2.73h-1.333v1.333zm0 13.27v1.333h1.333v-1.333h-1.333zm-2.734 0h-1.333v1.333h1.333v-1.333zm0-8.968h1.333V3.513l-2.479 4.17 1.146.681zm-5.332 8.968v1.333h.759l.388-.652-1.146-.681zm-2.734 0h-1.333v1.333h1.333v-1.333zm0-13.27V2.73h-1.333v1.333h1.333zm2.734 0h1.333V2.73h-1.333v1.333zm1.146 9.65 5.332-8.969-2.292-1.363-5.332 8.969 2.292 1.363zm4.186-8.317h2.734V2.729h-2.734v2.667zm1.401-1.333v13.271h2.667V4.063h-2.667zM108.93 16h-2.734v2.667h2.734V16zm-1.401 1.333V8.364h-2.667v8.969h2.667zm-2.479-9.65-5.332 8.969 2.292 1.363 5.332-8.969-2.292-1.363zM100.864 16H98.13v2.667h2.734V16zm-1.401 1.333V4.062h-2.667v13.271h2.667zM98.13 5.396h2.734V2.729H98.13v2.667zm1.401-1.333v8.969h2.667V4.063h-2.667zm21.18 5.404h1.333V8.134h-1.333v1.333zm0 2.133v1.333h1.333V11.6h-1.333zm-6.928 0h-1.333v1.333h1.333V11.6zm0-2.133V8.134h-1.333v1.333h1.333zm.812-5.404h1.333V2.73h-1.333v1.333zm0 13.27v1.333h1.333v-1.333h-1.333zm-2.735 0h-1.333v1.333h1.333v-1.333zm0-13.27V2.73h-1.333v1.333h1.333zm10.801 0h1.333V2.73h-1.333v1.333zm0 13.27v1.333h1.333v-1.333h-1.333zm-2.725 0h-1.333v1.333h1.333v-1.333zm0-13.27V2.73h-1.333v1.333h1.333zm-.559 5.404V11.6h2.667V9.467h-2.667zm1.334.8h-6.927v2.667h6.927v-2.667zm-5.594 1.333V9.467h-2.667V11.6h2.667zm-1.334-.799h6.927V8.134h-6.927v2.667zm-.522-6.738v13.271h2.667V4.063h-2.667zM114.595 16h-2.734v2.667h2.734V16zm-1.401 1.333V4.062h-2.667v13.271h2.667zM111.86 5.396h2.734V2.729h-2.734v2.667zm9.468-1.333v13.271h2.667V4.063h-2.667zM122.661 16h-2.725v2.667h2.725V16zm-1.392 1.333V4.062h-2.667v13.271h2.667zm-1.333-11.937h2.725V2.729h-2.725v2.667zm12.719 7.116v1.333h1.339l-.005-1.339-1.333.006zm-3.61 0-.512 1.231.246.102h.266v-1.333zm-.92-.383.512-1.231-.054-.023-.056-.018-.401 1.271zm-2.388-1.477-1.024.854.005.006 1.02-.859zm-.228-4.748-1.113-.734-.002.003 1.115.732zm1.695-1.377-.518-1.229-.004.002.521 1.227zm7.247-.464h1.333V2.73h-1.333v1.333zm0 13.27v1.333h1.333v-1.333h-1.333zm-2.744 0h-1.333v1.333h1.333v-1.333zm0-11.129h1.333V4.871h-1.333v1.333zm-3.537.556zm-.282 2.808-1.188.605.005.009 1.183-.614zm.72.711-.596 1.193.009.005.009.004.578-1.202zm4.037.228 1.333-.006-.005-1.327h-1.328v1.333zm-2.624.902 1.194.593.957-1.927h-2.151v1.333zm-2.945 5.924v1.333h.826l.368-.74-1.194-.593zm-2.962 0-1.193-.595-.961 1.928h2.154v-1.333zm2.953-5.924v-1.333h-.825l-.368.739 1.193.595zm5.588-.231h-3.609v2.667h3.609v-2.667zm-3.098.103-.921-.383-1.024 2.462.921.383 1.024-2.462zm-1.031-.424c-.863-.272-1.418-.647-1.77-1.064l-2.039 1.718c.755.895 1.791 1.505 3.006 1.889l.803-2.543zm-1.765-1.058c-.311-.373-.511-.889-.511-1.653h-2.667c0 1.265.347 2.421 1.129 3.36l2.049-1.707zm-.511-1.653c0-.696.152-1.173.374-1.51l-2.229-1.464c-.569.866-.811 1.884-.811 2.974h2.667zm.372-1.508c.244-.37.594-.667 1.104-.884L126.683 3.3c-.948.403-1.728 1.023-2.287 1.869l2.226 1.469zm1.1-.882c.534-.225 1.222-.36 2.098-.36V2.729c-1.141 0-2.198.175-3.134.57l1.036 2.457zm2.098-.36h4.631V2.729h-4.631v2.667zm3.297-1.333v13.271h2.667V4.063h-2.667zM134.451 16h-2.744v2.667h2.744V16zm-1.411 1.333V6.204h-2.667v11.129h2.667zm-1.333-12.462h-1.887v2.667h1.887V4.871zm-1.887 0c-.943 0-1.915.233-2.616.971l1.933 1.838c.004-.004.132-.141.683-.141V4.872zm-2.616.971c-.657.691-.896 1.589-.896 2.496h2.667c0-.455.114-.608.162-.658l-1.933-1.837zm-.896 2.495c0 .633.103 1.269.391 1.836l2.376-1.21c-.039-.077-.101-.262-.101-.625h-2.667zm.396 1.845a2.93 2.93 0 0 0 1.307 1.289l1.193-2.385a.269.269 0 0 1-.133-.133l-2.367 1.229zm1.326 1.298c.55.264 1.161.36 1.772.36V9.173c-.35 0-.534-.057-.616-.096l-1.155 2.403zm1.772.36h2.844V9.173h-2.844v2.667zm1.51-1.327.009 2.005 2.667-.012-.009-2.005-2.667.012zm-2.486.303-2.944 5.925 2.388 1.187 2.944-5.924-2.388-1.187zM127.076 16h-2.962v2.667h2.962V16zm-1.769 1.928 2.953-5.924-2.387-1.19-2.953 5.924 2.387 1.19zm1.76-5.186h2.953v-2.667h-2.953v2.667zm12.81.289h-1.333v4.852l2.48-4.17-1.147-.681zm5.332-8.968V2.73h-.759l-.388.652 1.147.681zm2.735 0h1.333V2.73h-1.333v1.333zm0 13.27v1.333h1.333v-1.333h-1.333zm-2.735 0h-1.333v1.333h1.333v-1.333zm0-8.968h1.333V3.513l-2.48 4.17 1.147.681zm-5.332 8.968v1.333h.759l.388-.652-1.147-.681zm-2.734 0h-1.333v1.333h1.333v-1.333zm0-13.27V2.73h-1.333v1.333h1.333zm2.734 0h1.333V2.73h-1.333v1.333zm3.992-3.482V-.752h-1.333V.581h1.333zm1.87 0h1.333V-.752h-1.333V.581zm-.392 1.394-1.123-.72-.003.004 1.125.716zm-1.095.948.572 1.205.012-.006-.584-1.199zm-4.001-.41-.881 1 .005.005.876-1.005zm-.847-1.932V-.752h-1.333V.581h1.333zm1.859 0h1.333V-.752h-1.333V.581zm.292.847-1.051.82.005.008.007.008 1.039-.836zm-.531 12.285 5.332-8.969-2.293-1.363-5.332 8.969 2.293 1.363zm4.185-8.317h2.735V2.729h-2.735v2.667zm1.402-1.333v13.271h2.667V4.063h-2.667zM147.944 16h-2.735v2.667h2.735V16zm-1.401 1.333V8.364h-2.667v8.969h2.667zm-2.48-9.65-5.332 8.969 2.293 1.363 5.332-8.969-2.293-1.363zM139.877 16h-2.735v2.667h2.735V16zm-1.401 1.333V4.062h-2.667v13.271h2.667zm-1.333-11.937h2.735V2.729h-2.735v2.667zm1.401-1.333v8.969h2.667V4.063h-2.667zm5.325-2.149h1.869V-.753h-1.869v2.667zm.536-1.333c0 .289-.069.499-.181.674l2.244 1.44a3.852 3.852 0 0 0 .604-2.115h-2.667zm-.184.678c-.109.171-.276.33-.553.465l1.168 2.397a3.953 3.953 0 0 0 1.635-1.431l-2.249-1.432zm-.54.459c-.26.123-.616.209-1.107.209v2.667c.799 0 1.56-.139 2.249-.466l-1.143-2.409zm-1.106.209c-.752 0-1.183-.188-1.447-.419l-1.753 2.01c.877.766 1.996 1.076 3.2 1.076V1.927zm-1.442-.414c-.263-.232-.396-.504-.396-.932h-2.667c0 1.152.431 2.167 1.299 2.932l1.764-2zm-1.729.401h1.859V-.753h-1.859v2.667zm.525-1.333c0 .613.197 1.185.575 1.668l2.101-1.641c-.007-.008-.009-.013-.009-.014v.002l.001.002-.001-.017h-2.667zm.587 1.683c.56.696 1.383.871 2.059.871V.468c-.063 0-.107-.004-.133-.008s-.032-.007-.023-.004c.009.004.036.015.071.038s.071.057.104.097l-2.077 1.672zm2.059.871c.673 0 1.501-.177 2.055-.887L142.527.607c.033-.043.072-.078.109-.105s.067-.039.08-.044c.012-.005.009-.002-.015.002s-.065.008-.127.008v2.667zm2.054-.886a2.675 2.675 0 0 0 .573-1.668h-2.667l-.001.017.001-.002V.594a.061.061 0 0 1-.009.014l2.103 1.641zm12.178 1.814h1.333V2.73h-1.333v1.333zm0 13.27v1.333h1.333v-1.333h-1.333zm-2.726 0h-1.333v1.333h1.333v-1.333zm0-13.27V2.73h-1.333v1.333h1.333zm6.81 0h1.333V2.73h-1.333v1.333zm0 2.141v1.333h1.333V6.204h-1.333zm-10.828 0h-1.333v1.333h1.333V6.204zm0-2.141V2.73h-1.333v1.333h1.333zm5.41 0v13.271h2.667V4.063h-2.667zM156.807 16h-2.725v2.667h2.725V16zm-1.392 1.333V4.062h-2.667v13.271h2.667zm-1.334-11.937h2.725V2.729h-2.725v2.667zm5.476-1.333v2.142h2.667V4.063h-2.667zm1.334.808h-10.828v2.667h10.828V4.871zm-9.495 1.333V4.062h-2.667v2.142h2.667zm-1.333-.808h10.828V2.729h-10.828v2.667zm21.852 9.805h1.333v-1.333h-1.333v1.333zm0 2.132v1.333h1.333v-1.333h-1.333zm-7.064 0h-1.333v1.333h1.333v-1.333zm0-2.132v-1.333h-1.333v1.333h1.333zm.893-11.138h1.333V2.73h-1.333v1.333zm0 13.27v1.333h1.333v-1.333h-1.333zm-2.735 0h-1.333v1.333h1.333v-1.333zm0-13.27V2.73h-1.333v1.333h1.333zm7.984 5.404h1.333V8.134h-1.333v1.333zm0 2.079v1.333h1.333v-1.333h-1.333zm-6.142 0h-1.333v1.333h1.333v-1.333zm0-2.079V8.134h-1.333v1.333h1.333zm7.054-5.404h1.333V2.73h-1.333v1.333zm0 2.141v1.333h1.333V6.204h-1.333zm-7.054 0h-1.333v1.333h1.333V6.204zm0-2.141V2.73h-1.333v1.333h1.333zm5.73 11.138v2.133h2.667v-2.133h-2.667zm1.334.799h-7.064v2.667h7.064V16zm-5.731 1.333V15.2h-2.667v2.133h2.667zm-1.333-.799h7.064v-2.667h-7.064v2.667zm-.44-12.471v13.271h2.667V4.063h-2.667zM165.744 16h-2.735v2.667h2.735V16zm-1.401 1.333V4.062h-2.667v13.271h2.667zm-1.334-11.937h2.735V2.729h-2.735v2.667zm6.651 4.071v2.078h2.667V9.467h-2.667zm1.333.745h-6.143v2.667h6.143v-2.667zm-4.809 1.334V9.468h-2.667v2.078h2.667zm-1.333-.745h6.143V8.134h-6.143v2.667zm5.721-6.738v2.142h2.667V4.063h-2.667zm1.333.808h-7.055v2.667h7.055V4.871zm-5.721 1.333V4.062h-2.667v2.142h2.667zm-1.333-.808h7.055V2.729h-7.055v2.667zm16.91 7.535v-1.333h-1.245l-.084 1.243 1.329.091zm2.726 0 1.331.081.087-1.415h-1.417v1.333zm-.738 2.379-1.128-.712-.004.007 1.132.705zm-1.814 1.622-.596-1.193-.004.002.6 1.191zm-5.076.146-.539 1.22.009.004.529-1.224zm-1.732-1.276-1.013.868.007.006 1.007-.874zm-1.086-2.005zm.01-6.189-1.265-.419-.003.006 1.268.413zm1.112-2.014-1.001-.88-.005.006 1.007.874zm6.8-1.121-.623 1.179.004.002.619-1.181zm1.777 1.658-1.147.682.005.007 1.141-.689zm.765 2.407v1.333h1.465l-.137-1.459-1.328.126zm-2.734 0-1.331.076.071 1.258h1.26V8.539zm-.319-1.358-1.2.581.004.008 1.196-.588zm-.829-.848-.628 1.176.012.006.012.006.604-1.189zm-2.652-.036zm-1.378 2.087-1.303-.284-.001.011 1.304.273zm-.008 4.594-1.309.259.001.003 1.308-.261zm.474 1.312-1.147.68.013.023 1.133-.703zm.838.802-.629 1.175.012.007.012.006.605-1.188zm3.51-.82-1.164-.651-.008.015 1.172.636zm.354-.007h2.725v-2.667h-2.725v2.667zm1.395-1.414c-.043.691-.228 1.262-.535 1.748l2.255 1.424c.568-.9.875-1.913.941-3.009l-2.661-.163zm-.539 1.755c-.293.47-.705.848-1.279 1.135l1.192 2.385c.984-.491 1.78-1.195 2.349-2.11l-2.263-1.41zm-1.282 1.137c-.544.274-1.257.441-2.189.441v2.667c1.244 0 2.389-.222 3.389-.726l-1.2-2.381zm-2.19.44c-.696 0-1.275-.119-1.757-.328l-1.059 2.448c.865.374 1.812.547 2.816.547v-2.667zm-1.749-.324a3.546 3.546 0 0 1-1.263-.93l-2.013 1.748a6.204 6.204 0 0 0 2.2 1.622l1.076-2.439zm-1.257-.924c-.344-.401-.624-.906-.827-1.541l-2.541.808c.296.932.739 1.764 1.344 2.469l2.024-1.735zm-.827-1.541c-.2-.632-.311-1.371-.311-2.23h-2.667c0 1.085.139 2.102.436 3.038l2.541-.808zm-.311-2.23v-.921h-2.667v.921h2.667zm0-.921c0-.857.112-1.592.317-2.221l-2.536-.826c-.305.939-.448 1.959-.448 3.047h2.667zm.316-2.215c.213-.645.503-1.156.852-1.559l-2.013-1.748c-.611.703-1.061 1.535-1.371 2.47l2.532.837zm.847-1.553c.359-.407.78-.717 1.279-.937l-1.077-2.44a6.3 6.3 0 0 0-2.204 1.615l2.003 1.761zm1.279-.937c.484-.214 1.051-.333 1.721-.333V2.537c-.993 0-1.935.178-2.799.56l1.077 2.44zm1.721-.333c.949 0 1.655.173 2.176.447l1.245-2.358c-.999-.527-2.159-.756-3.421-.756v2.667zm2.18.45c.559.293.964.678 1.249 1.159l2.292-1.363a5.707 5.707 0 0 0-2.304-2.158l-1.237 2.362zm1.255 1.166c.312.517.511 1.123.579 1.843l2.656-.251c-.103-1.079-.413-2.077-.952-2.97l-2.283 1.378zm1.906.384h-2.735v2.667h2.735V7.204zm-1.402 1.258c-.039-.662-.173-1.3-.455-1.871l-2.392 1.177c.083.171.16.438.184.845l2.663-.151zm-.451-1.863a3.146 3.146 0 0 0-1.425-1.456l-1.208 2.377a.474.474 0 0 1 .233.24l2.4-1.162zm-1.403-1.443c-.627-.335-1.355-.449-2.085-.449v2.667c.484 0 .729.08.831.135l1.255-2.353zm-2.085-.449c-.623 0-1.232.117-1.791.396l1.193 2.385c.121-.061.308-.114.597-.114V4.707zm-1.791.396a3.54 3.54 0 0 0-1.369 1.228l2.219 1.479a.898.898 0 0 1 .344-.322l-1.193-2.385zm-1.369 1.228c-.347.519-.572 1.123-.713 1.768l2.605.569c.091-.413.211-.684.327-.857l-2.219-1.479zm-.715 1.779a10.4 10.4 0 0 0-.193 2.114h2.667c0-.64.051-1.159.136-1.568l-2.609-.546zm-.193 2.114v.939h2.667v-.939h-2.667zm0 .939c0 .75.056 1.444.18 2.072l2.617-.517a8.063 8.063 0 0 1-.131-1.555h-2.667zm.181 2.075c.125.627.328 1.214.635 1.731l2.293-1.361c-.119-.2-.232-.488-.313-.894l-2.615.523zm.648 1.754c.333.536.78.973 1.343 1.274l1.259-2.351a.871.871 0 0 1-.335-.33l-2.267 1.406zm1.367 1.287c.576.293 1.209.409 1.853.409v-2.667c-.327 0-.525-.059-.644-.119l-1.209 2.377zm1.853.41c.703 0 1.392-.11 2.001-.41l-1.176-2.393c-.132.065-.384.137-.825.137v2.667zm2.002-.41a3.22 3.22 0 0 0 1.432-1.372l-2.344-1.271a.563.563 0 0 1-.264.25l1.176 2.393zm1.422-1.357c.323-.575.477-1.226.523-1.9l-2.66-.181c-.028.396-.109.637-.189.78l2.327 1.302zm6.042-6.02V7.569h-1.333v1.333h1.333zm5.797.52zm1.74 1.458zm.265 3.919 1.217.544.001-.005-1.219-.539zm-1.012 1.349.869 1.01.001-.001-.871-1.009zm-8.577 1.185h-1.333v1.333h1.333v-1.333zm0-13.27V2.73h-1.333v1.333h1.333zm2.744 0h1.333V2.73h-1.333v1.333zm0 11.138h-1.333v1.333h1.333v-1.333zm3.436-.292zm.765-.775-1.175-.631-.004.008 1.179.623zm0-2.105-1.168.642.007.014.008.014 1.153-.669zm-5.158-.994h-1.333v1.333h1.333v-1.333zm0-.799h3.099V7.569h-3.099v2.667zm3.098 0c.901 0 1.601.15 2.141.398l1.113-2.423c-.967-.445-2.065-.641-3.255-.641v2.667zm2.142.397c.551.253.925.582 1.18.974l2.236-1.454c-.56-.86-1.345-1.503-2.303-1.943l-1.113 2.423zm1.18.974c.251.385.395.855.395 1.46h2.667c0-1.06-.263-2.048-.825-2.915l-2.236 1.454zm.394 1.461c0 .466-.084.857-.232 1.193l2.439 1.078c.315-.71.46-1.473.46-2.271h-2.667zm-.229 1.187a2.514 2.514 0 0 1-.665.884l1.741 2.019a5.18 5.18 0 0 0 1.359-1.814l-2.435-1.088zm-.665.883c-.289.249-.66.461-1.137.62l.844 2.53a5.96 5.96 0 0 0 2.033-1.13l-1.74-2.021zm-1.138.621c-.46.153-1.015.241-1.684.241v2.667c.9 0 1.748-.118 2.528-.378l-.844-2.53zm-1.684.241h-4.885v2.667h4.885V16zm-3.552 1.333V4.062h-2.667v13.271h2.667zm-1.333-11.937h2.744V2.729h-2.744v2.667zm1.411-1.333v11.138h2.667V4.063h-2.667zm1.333 12.471h2.141v-2.667h-2.141v2.667zm2.141 0c.68 0 1.359-.126 1.956-.467l-1.323-2.315c-.083.047-.268.116-.633.116v2.667zm1.956-.467a3.25 3.25 0 0 0 1.283-1.31l-2.357-1.246a.595.595 0 0 1-.248.24l1.323 2.315zm1.279-1.302a3.585 3.585 0 0 0 .424-1.715h-2.667c0 .189-.04.331-.107.454l2.349 1.262zm.424-1.716c0-.594-.143-1.168-.445-1.69l-2.307 1.338a.656.656 0 0 1 .085.352h2.667zm-.429-1.662a3.113 3.113 0 0 0-1.321-1.271l-1.227 2.368a.447.447 0 0 1 .211.187l2.337-1.283zm-1.322-1.272c-.587-.303-1.245-.414-1.908-.414v2.667c.384 0 .587.066.681.115l1.227-2.368zm-1.908-.413h-3.099v2.667h3.099V9.702zm-1.765 1.333V8.902h-2.667v2.133h2.667z" />
        </symbol>
        <symbol id="icon-mail" viewBox="0 0 43 32">
            <path
                d="M38.667 0H4C1.794 0 0 1.794 0 4v24c0 2.206 1.794 4 4 4h34.667c2.206 0 4-1.794 4-4V4c0-2.206-1.794-4-4-4zm0 2.667c.181 0 .353.038.511.103L21.334 18.236 3.49 2.77a1.32 1.32 0 0 1 .511-.103h34.667zm0 26.666H4A1.334 1.334 0 0 1 2.667 28V5.587L20.46 21.008a1.335 1.335 0 0 0 1.748 0L40.001 5.587V28c0 .736-.598 1.333-1.333 1.333z" />
        </symbol>
        <symbol id="icon-phone" viewBox="0 0 20 32">
            <path
                d="M17 0H3C1.346 0 0 1.346 0 3v26c0 1.654 1.346 3 3 3h14c1.654 0 3-1.346 3-3V3c0-1.654-1.346-3-3-3zM3 2h14a1 1 0 0 1 1 1v21H2V3a1 1 0 0 1 1-1zm14 28H3a1 1 0 0 1-1-1v-3h16v3a1 1 0 0 1-1 1z" />
            <path
                d="M4.707 27.478c.391.365.391.956 0 1.321s-1.024.365-1.414 0c-.391-.365-.391-.956 0-1.321s1.024-.365 1.414 0z" />
        </symbol>
        <symbol id="icon-logo-01" viewBox="0 0 57 32">
            <path
                d="m20.267 3.733 3.738 3.538-6.938-.004v17.166H35.2v-6.564l3.733 3.534V3.732H20.266zm14.769 13.722L24.439 7.423h10.597v10.032zm-3.29 4.468h-11.81V10.378h.835v10.764h10.975v.782zm-9.021 4.797-.436.898-.436-.898h-.366l.637 1.198v.698h.331v-.698l.635-1.198h-.365zm.548 1.895.154-.441h.734l.155.441h.344l-.717-1.896h-.296l-.716 1.896h.342zm.521-1.493.275.786h-.549l.275-.786zm1.737.741a.429.429 0 0 0-.072.241c0 .16.056.29.168.389s.263.148.451.148.349-.051.484-.152l.107.126h.367l-.279-.329a.95.95 0 0 0 .164-.574h-.275a.758.758 0 0 1-.079.348l-.366-.432.129-.094c.091-.066.157-.132.197-.198s.06-.14.06-.219c0-.12-.044-.22-.133-.301s-.201-.122-.339-.122c-.153 0-.274.043-.365.13s-.135.203-.135.352c0 .061.014.124.043.189s.081.144.155.237a1.12 1.12 0 0 0-.283.262zm.855.419a.485.485 0 0 1-.299.107c-.095 0-.17-.027-.227-.082s-.085-.126-.085-.214c0-.102.052-.192.156-.271l.04-.029.414.488zm-.34-.84c-.089-.11-.134-.202-.134-.275 0-.063.018-.116.055-.158s.085-.063.147-.063c.057 0 .105.018.142.053s.056.077.056.126a.235.235 0 0 1-.081.184l-.04.033-.145.099zm3.086 1.03a.689.689 0 0 0 .224-.474h-.328c-.017.135-.059.232-.124.29s-.162.087-.292.087c-.142 0-.249-.054-.323-.161s-.109-.264-.109-.469v-.168c.002-.202.041-.355.117-.46s.188-.158.331-.158c.123 0 .217.03.28.091s.104.158.12.294h.328c-.021-.207-.095-.368-.223-.482s-.296-.171-.505-.171a.718.718 0 0 0-.683.426 1.116 1.116 0 0 0-.095.473v.177c.003.174.035.328.098.46s.151.234.266.306a.748.748 0 0 0 .4.107c.216 0 .389-.056.52-.169zm1.936-.266c.064-.141.096-.304.096-.49v-.105c-.001-.185-.034-.347-.099-.486a.726.726 0 0 0-.687-.432.757.757 0 0 0-.411.113c-.119.075-.211.183-.277.324s-.098.305-.098.49v.107c.001.181.034.342.099.48s.159.246.279.322a.764.764 0 0 0 .411.112c.155 0 .293-.037.411-.112s.212-.183.276-.323zm-.352-1.071c.08.112.12.273.12.483v.099c0 .214-.04.376-.119.487s-.19.167-.336.167c-.144 0-.257-.057-.339-.171s-.121-.275-.121-.483v-.109c.002-.204.043-.362.122-.473s.192-.168.335-.168c.146 0 .258.056.337.168z" />
        </symbol>
        <symbol id="icon-logo-02" viewBox="0 0 57 32">
            <path
                d="M26.727 3.165h-.073a7.542 7.542 0 0 0-.336-.012h-.243c-.212 0-.428.005-.642.016a.4.4 0 0 0-.049 0c-1.944.11-3.848.596-5.609 1.431l-.231.111V16.52l.54-.183a20.64 20.64 0 0 1 1.5-.445 18.34 18.34 0 0 1 4.317-.574v1.551c-.193.001-.38.007-.568.016h-.045a17.207 17.207 0 0 0-3.322.51 16.858 16.858 0 0 0-3.957 1.542V3.792a15.847 15.847 0 0 1 4.151-1.688c1.278-.33 2.593-.5 3.913-.504h.228c.273.007.538.019.788.038.658.046 1.31.15 1.95.311v1.527a12.05 12.05 0 0 0-1.889-.285l-.039-.003c-.132-.011-.263-.022-.386-.022zm2.688 1.561c.339.026.689.038 1.044.038a16.75 16.75 0 0 0 4.114-.528 16.958 16.958 0 0 0 3.956-1.543v14.875a15.88 15.88 0 0 1-4.153 1.688 15.948 15.948 0 0 1-3.913.503c-1 .008-1.997-.11-2.968-.35V4.438c.229.053.465.102.706.142.394.066.81.115 1.214.145zm7.57.115-.54.182c-.497.167-.997.316-1.5.449a18.23 18.23 0 0 1-4.483.575c-.352 0-.676-.01-.989-.03l-.43-.028v12.148l.37.033c.343.03.696.045 1.052.045a14.364 14.364 0 0 0 3.531-.457c.95-.238 1.874-.57 2.759-.991l.231-.111V4.843zM19.06 24.113a.788.788 0 0 0-.6-.243.895.895 0 0 0-.347.065.778.778 0 0 0-.444.449.893.893 0 0 0-.062.335v2.023a.94.94 0 0 0 .08.415.718.718 0 0 0 .48.415c.098.028.2.042.302.042a.855.855 0 0 0 .838-.851v-.226h-.529v.18a.458.458 0 0 1-.031.18.315.315 0 0 1-.077.114.38.38 0 0 1-.222.077.266.266 0 0 1-.249-.109.479.479 0 0 1-.07-.271v-1.887a.643.643 0 0 1 .065-.302c.027-.043.066-.077.112-.098s.097-.03.147-.024a.28.28 0 0 1 .236.114c.059.078.09.173.088.271v.175h.524v-.206a.953.953 0 0 0-.242-.639zM22.202 24.09a.92.92 0 0 0-1.197 0 .82.82 0 0 0-.205.283.959.959 0 0 0-.077.392v1.941a.932.932 0 0 0 .077.397.791.791 0 0 0 .205.271.837.837 0 0 0 .279.171.897.897 0 0 0 .918-.171.849.849 0 0 0 .2-.271.934.934 0 0 0 .077-.397v-1.941a.943.943 0 0 0-.077-.392.867.867 0 0 0-.2-.283zm-.247 2.616a.355.355 0 0 1-.105.28.386.386 0 0 1-.498 0 .352.352 0 0 1-.105-.28v-1.941a.355.355 0 0 1 .105-.28.386.386 0 0 1 .498 0 .352.352 0 0 1 .105.28v1.941zM26.329 27.573v-3.674h-.509l-.668 1.945h-.009l-.673-1.945h-.503v3.674h.525v-2.235h.009l.514 1.58h.262l.518-1.58h.009v2.235h.525zM29.311 24.157a.727.727 0 0 0-.297-.201 1.168 1.168 0 0 0-.38-.057h-.78v3.674h.523v-1.435h.27a.964.964 0 0 0 .472-.1.759.759 0 0 0 .287-.281.875.875 0 0 0 .12-.32c.021-.138.03-.278.028-.418a2.107 2.107 0 0 0-.051-.525.785.785 0 0 0-.193-.338zm-.27 1.12a.45.45 0 0 1-.049.191.296.296 0 0 1-.135.129.538.538 0 0 1-.247.046h-.239v-1.249h.27a.506.506 0 0 1 .236.046.3.3 0 0 1 .123.136.537.537 0 0 1 .046.205v.244c0 .085.005.174 0 .252h-.005zM31.791 23.899h-.429l-.809 3.674h.523l.154-.789h.714l.154.789h.524l-.83-3.674zm-.483 2.384.258-1.332h.009l.256 1.332h-.524zM35.173 26.112h-.009l-.791-2.213h-.503v3.674h.523v-2.209h.011l.8 2.209h.492v-3.674h-.523v2.213zM38.372 23.899l-.421 1.461h-.011l-.421-1.461h-.554l.719 2.121v1.553h.524V26.02l.719-2.121h-.554zM17.6 28.61h.252v.708h.171v-.708h.251v-.145h-.675v.145zM19.721 28.465l-.331.853h.182l.07-.194h.34l.073.194h.186l-.339-.853h-.182zm-.027.516.116-.316.116.316h-.232zM21.818 29.004h.197v.11a.332.332 0 0 1-.202.072c-.034.002-.069-.004-.1-.019s-.059-.036-.081-.063a.352.352 0 0 1-.063-.222c0-.19.082-.285.246-.285.043-.004.086.007.121.032s.061.062.072.104l.169-.033c-.036-.167-.156-.251-.362-.251a.426.426 0 0 0-.298.11.413.413 0 0 0-.122.328.465.465 0 0 0 .109.32.408.408 0 0 0 .324.125.511.511 0 0 0 .362-.136v-.336h-.37v.144zM23.959 28.465h-.173v.853h.598v-.145h-.425v-.708zM25.769 28.465h-.173v.853h.173v-.853zM27.539 29.035l-.349-.57h-.167v.853h.161v-.557l.343.557h.171v-.853h-.158v.57zM29.14 28.943h.425v-.145h-.425v-.187h.457v-.145h-.63v.853h.648v-.145h-.475v-.231zM33.02 28.802h-.336v-.336h-.171v.853h.171v-.373h.336v.373h.171v-.853h-.171v.336zM34.629 28.943h.426v-.145h-.426v-.187h.459v-.145h-.63v.853h.646v-.145h-.475v-.231zM36.812 28.943c.148-.023.224-.102.224-.237a.203.203 0 0 0-.084-.189.479.479 0 0 0-.25-.05h-.362v.853h.171v-.357h.034a.231.231 0 0 1 .107.019.181.181 0 0 1 .061.062l.186.271h.205L37 29.148a.6.6 0 0 0-.189-.205zm-.172-.118h-.127v-.214h.135a.445.445 0 0 1 .174.02c.012.011.022.025.029.04a.116.116 0 0 1-.004.097.114.114 0 0 1-.032.037.486.486 0 0 1-.174.02zM38.458 28.943h.425v-.145h-.425v-.187h.459v-.145h-.631v.853h.648v-.145h-.475v-.231z" />
        </symbol>
        <symbol id="icon-logo-03" viewBox="0 0 57 32">
            <path
                d="M19.417 26.187c.008 0 .017.002.025.005s.015.007.02.013l.116.111a.955.955 0 0 1-.327.211 1.299 1.299 0 0 1-.464.076 1.213 1.213 0 0 1-.436-.071.942.942 0 0 1-.329-.2.878.878 0 0 1-.212-.308 1.02 1.02 0 0 1-.074-.396.91.91 0 0 1 .305-.705 1.06 1.06 0 0 1 .349-.201c.143-.048.296-.072.449-.071.143-.003.285.019.417.064.115.043.221.104.313.178l-.097.119a.085.085 0 0 1-.025.021.066.066 0 0 1-.039.009.086.086 0 0 1-.042-.013l-.052-.032-.073-.04a.818.818 0 0 0-.229-.071 1.11 1.11 0 0 0-.173-.013.952.952 0 0 0-.323.053.683.683 0 0 0-.417.387.81.81 0 0 0-.06.313.795.795 0 0 0 .06.318.68.68 0 0 0 .402.383.867.867 0 0 0 .3.05c.059.001.119-.003.177-.01a.69.69 0 0 0 .384-.163.09.09 0 0 1 .055-.02zM22.776 25.629a.974.974 0 0 1-.078.393c-.047.114-.122.218-.219.305s-.214.155-.344.2a1.42 1.42 0 0 1-.884 0 1.027 1.027 0 0 1-.342-.201.904.904 0 0 1-.221-.308 1.022 1.022 0 0 1 0-.787.94.94 0 0 1 .221-.31c.097-.084.214-.15.342-.193.284-.096.6-.096.884 0 .129.046.246.114.343.201a.914.914 0 0 1 .298.699zm-.306 0a.84.84 0 0 0-.055-.316.653.653 0 0 0-.402-.385 1.025 1.025 0 0 0-.643 0 .683.683 0 0 0-.246.149.63.63 0 0 0-.157.236.927.927 0 0 0 0 .632.643.643 0 0 0 .403.384c.207.067.435.067.643 0a.698.698 0 0 0 .246-.148.662.662 0 0 0 .156-.236.82.82 0 0 0 .055-.316zM25.067 25.96l.03.071.033-.071a.68.68 0 0 1 .038-.07l.743-1.174c.015-.02.028-.033.042-.037a.207.207 0 0 1 .061-.006h.22v1.909h-.26V25.119a.726.726 0 0 1 0-.066l-.747 1.19c-.009.018-.025.033-.044.043s-.041.016-.064.016h-.042c-.023 0-.045-.005-.064-.016s-.034-.026-.044-.044l-.769-1.198v1.533h-.252v-1.905h.22a.207.207 0 0 1 .061.006.087.087 0 0 1 .041.037l.759 1.175a.418.418 0 0 1 .038.068zM27.864 25.865v.715h-.291v-1.906h.649c.122-.002.244.012.362.042a.724.724 0 0 1 .256.119.492.492 0 0 1 .145.187.576.576 0 0 1 .049.244.54.54 0 0 1-.211.435.752.752 0 0 1-.257.126 1.25 1.25 0 0 1-.35.044l-.352-.005zm0-.205h.352a.808.808 0 0 0 .225-.029.52.52 0 0 0 .163-.082.358.358 0 0 0 .134-.286c.003-.053-.007-.106-.029-.155s-.057-.094-.102-.13a.624.624 0 0 0-.391-.102h-.352v.786zM31.772 26.583h-.23a.109.109 0 0 1-.064-.018.123.123 0 0 1-.038-.044l-.198-.461h-.993l-.205.461a.107.107 0 0 1-.101.062h-.23l.872-1.909h.302l.884 1.909zm-1.439-.709h.82l-.346-.777a1.276 1.276 0 0 1-.065-.179l-.034.1a.98.98 0 0 1-.032.081l-.343.776zM33.029 24.682c.017.008.032.02.044.034l1.272 1.439V24.673h.26v1.909h-.145a.136.136 0 0 1-.06-.011.165.165 0 0 1-.047-.035l-1.271-1.438a.726.726 0 0 1 0 .066v1.419h-.26v-1.909h.154a.15.15 0 0 1 .052.009zM36.748 25.823v.758h-.291v-.758l-.804-1.15h.26a.114.114 0 0 1 .063.016.159.159 0 0 1 .039.043l.503.742a.717.717 0 0 1 .088.169l.038-.082a.745.745 0 0 1 .049-.087l.496-.747a.18.18 0 0 1 .038-.04.098.098 0 0 1 .063-.019h.263l-.806 1.155zM24.923 21.47c.127.014.255.025.384.035 1.962-.763 3.622-2.011 4.772-3.588s1.74-3.415 1.695-5.282l-2.162-1.879c.44 1.988.234 4.043-.594 5.935s-2.245 3.547-4.094 4.779z" />
            <path
                d="m24.151 21.383.058.01c1.975-1.228 3.482-2.942 4.323-4.921s.981-4.133.4-6.181l-3.08-2.676c1.246 2.2 1.747 4.661 1.446 7.098s-1.393 4.75-3.147 6.67zM34.596 14.841c-.523 2.052-1.794 3.902-3.624 5.276-.534.404-1.111.763-1.722 1.074 1.49-.38 2.859-1.053 4.003-1.966s2.03-2.042 2.592-3.3l-1.249-1.084z" />
            <path
                d="m34.106 14.539-1.778-1.545c-.034 1.762-.61 3.483-1.669 4.986s-2.562 2.731-4.352 3.559h.009c.399 0 .798-.021 1.194-.062 1.673-.593 3.151-1.537 4.303-2.748s1.94-2.65 2.295-4.189zM24.409 6.486 22.287 4.64c-1.897.637-3.528 1.756-4.68 3.212s-1.772 3.179-1.778 4.946c.007 1.952.763 3.846 2.149 5.383s3.322 2.628 5.501 3.101c1.946-2.06 3.085-4.605 3.252-7.266s-.647-5.299-2.323-7.53zM39.008 14.255c-.008-2.316-1.07-4.535-2.955-6.173s-4.439-2.561-7.105-2.567a11.3 11.3 0 0 0-3.602.582l12.99 11.286a7.647 7.647 0 0 0 .672-3.128z" />
        </symbol>
        <symbol id="icon-logo-04" viewBox="0 0 57 32">
            <path
                d="M12.878 11.255h-.002c-1.279 0-2.316.921-2.316 2.058v.001c0 1.137 1.037 2.058 2.316 2.058h.002c1.279 0 2.316-.921 2.316-2.058v-.001c0-1.137-1.037-2.058-2.316-2.058zM29.971 10.597c-.004-1.579-.711-3.092-1.967-4.208s-2.958-1.745-4.735-1.749c-1.777.003-3.48.631-4.737 1.748s-1.964 2.63-1.968 4.209v8.706s13.405-1.327 13.406-8.704v-.001zM5.867 22.16c.003 1.098.496 2.151 1.369 2.928s2.058 1.215 3.294 1.218c1.236-.003 2.42-.441 3.294-1.218s1.366-1.829 1.37-2.927v-6.057s-9.327.924-9.327 6.056zm4.663 1.085c-.242 0-.478-.064-.678-.183s-.357-.289-.45-.487c-.092-.198-.117-.417-.069-.627s.163-.404.334-.556c.171-.152.388-.255.625-.297s.482-.02.706.062c.223.082.414.221.548.4s.206.388.206.603c.001.143-.031.284-.092.417s-.151.252-.264.353c-.114.101-.248.182-.397.236s-.308.083-.468.083v-.004zM19.956 22.647h-.9v.93h-.469v-2.275h1.481v.38h-1.012v.588h.9v.378zm2.253-.156c0 .224-.04.42-.119.589a.893.893 0 0 1-.847.528c-.189 0-.357-.045-.505-.136s-.262-.22-.344-.387a1.344 1.344 0 0 1-.123-.581v-.112c0-.224.04-.421.12-.591a.895.895 0 0 1 .848-.529c.189 0 .358.046.505.137a.888.888 0 0 1 .342.392c.081.17.122.366.122.589v.102zm-.475-.103c0-.238-.043-.42-.128-.544s-.207-.186-.366-.186a.416.416 0 0 0-.364.184c-.085.122-.129.301-.13.538v.111c0 .232.043.412.128.541s.208.192.369.192a.415.415 0 0 0 .363-.184c.084-.124.127-.304.128-.541v-.111zm1.996.592a.237.237 0 0 0-.094-.203 1.203 1.203 0 0 0-.337-.15 2.418 2.418 0 0 1-.386-.156c-.258-.14-.387-.328-.387-.564 0-.123.034-.232.103-.328a.688.688 0 0 1 .298-.227c.13-.054.276-.081.438-.081.163 0 .307.03.434.089a.662.662 0 0 1 .401.614h-.469c0-.104-.033-.185-.098-.242s-.158-.087-.277-.087a.426.426 0 0 0-.267.073.225.225 0 0 0-.095.191c0 .074.037.136.111.186.075.05.185.097.33.141.267.08.461.18.583.298s.183.267.183.444a.55.55 0 0 1-.223.464c-.149.111-.349.167-.602.167-.175 0-.334-.032-.478-.095-.144-.065-.254-.153-.33-.264s-.113-.241-.113-.388h.47c0 .251.15.377.45.377a.442.442 0 0 0 .261-.067.222.222 0 0 0 .094-.191zm2.501-1.298h-.697v1.895h-.469v-1.895h-.687v-.38h1.853v.38zm1.638.909h-.9v.609h1.056v.377H26.5v-2.275h1.522v.38h-1.053v.542h.9v.367zm1.273.153h-.373v.833H28.3v-2.275h.845c.269 0 .476.06.622.18s.219.289.219.508a.697.697 0 0 1-.102.389.689.689 0 0 1-.305.247l.492.93v.022h-.503l-.427-.833zm-.373-.379h.378c.118 0 .209-.03.273-.089a.321.321 0 0 0 .097-.248.343.343 0 0 0-.092-.253c-.06-.061-.154-.092-.28-.092h-.377v.683zm2.84.41v.802h-.469v-2.275h.887c.171 0 .321.031.45.094a.703.703 0 0 1 .405.659.655.655 0 0 1-.23.528c-.152.128-.363.192-.633.192h-.411zm0-.379h.419c.124 0 .218-.029.283-.088.066-.058.098-.142.098-.25 0-.111-.033-.202-.098-.27s-.156-.104-.272-.106h-.43v.714zm2.966.195h-.9v.609h1.056v.377h-1.525v-2.275h1.522v.38h-1.053v.542h.9v.367zm2.175-.909h-.697v1.895h-.469v-1.895h-.688v-.38h1.853v.38zm1.637.909h-.9v.609h1.056v.377h-1.525v-2.275h1.522v.38h-1.053v.542h.9v.367zm1.274.153h-.373v.833h-.469v-2.275h.845c.269 0 .476.06.622.18s.219.289.219.508a.697.697 0 0 1-.102.389.689.689 0 0 1-.305.247l.492.93v.022h-.503l-.427-.833zm-.374-.379h.378c.118 0 .209-.03.273-.089a.321.321 0 0 0 .097-.248.343.343 0 0 0-.092-.253c-.06-.061-.154-.092-.28-.092h-.377v.683zm2.755.615a.237.237 0 0 0-.094-.203 1.203 1.203 0 0 0-.337-.15 2.418 2.418 0 0 1-.386-.156c-.258-.14-.388-.328-.388-.564 0-.123.034-.232.103-.328a.688.688 0 0 1 .298-.227c.13-.054.276-.081.438-.081.163 0 .307.03.434.089a.675.675 0 0 1 .295.248.646.646 0 0 1 .106.366h-.469c0-.104-.033-.185-.098-.242s-.158-.087-.277-.087a.426.426 0 0 0-.267.073.225.225 0 0 0-.095.191c0 .074.037.136.111.186.075.05.185.097.33.141.267.08.461.18.583.298s.183.267.183.444a.548.548 0 0 1-.223.464c-.149.111-.349.167-.602.167-.175 0-.334-.032-.478-.095a.773.773 0 0 1-.33-.264.678.678 0 0 1-.112-.388h.47c0 .251.15.377.45.377a.442.442 0 0 0 .261-.067.222.222 0 0 0 .094-.191z" />
        </symbol>
        <symbol id="icon-logo-05" viewBox="0 0 57 32">
            <path
                d="M14.27 23.859c.13.147.199.332.196.521.007.123-.017.247-.07.361s-.132.216-.233.297c-.252.175-.565.26-.881.24h-1.549v-3.302h1.517c.299-.018.596.059.84.219.098.075.176.17.227.277s.074.224.068.341a.725.725 0 0 1-.176.505.839.839 0 0 1-.462.258.897.897 0 0 1 .523.282zm-1.816-.499h.648a.653.653 0 0 0 .412-.11c.049-.04.087-.09.111-.146s.034-.116.028-.176c.005-.06-.005-.12-.029-.175s-.061-.106-.108-.147a.665.665 0 0 0-.425-.111h-.638v.866zm1.124 1.267c.052-.041.093-.093.12-.151s.038-.121.034-.184c.004-.064-.008-.127-.035-.186s-.069-.111-.121-.153a.714.714 0 0 0-.44-.119h-.68v.908h.689a.732.732 0 0 0 .435-.114zM17.371 25.278l-.844-1.291h-.317v1.291h-.726v-3.302h1.374c.346-.022.689.078.957.281.192.179.308.415.327.666s-.061.499-.224.7c-.17.178-.401.296-.655.336l.898 1.32h-.789zm-1.161-1.74h.594c.412 0 .618-.167.618-.5a.458.458 0 0 0-.151-.371.687.687 0 0 0-.467-.134h-.601l.007 1.005zM21.339 24.614h-1.446l-.255.665h-.761l1.328-3.265h.823l1.323 3.265h-.761l-.25-.665zm-.194-.5-.529-1.394-.529 1.394h1.057zM26.305 25.278h-.721l-1.616-2.245v2.245h-.719v-3.302h.719l1.616 2.258v-2.258h.721v3.302zM30.417 24.488a1.501 1.501 0 0 1-.652.582 2.282 2.282 0 0 1-1.013.208h-1.283v-3.302h1.283c.351-.008.698.061 1.013.203.276.127.503.328.652.576a1.78 1.78 0 0 1 0 1.732zm-.824-.079c.206-.219.319-.499.319-.788s-.113-.569-.319-.788a1.326 1.326 0 0 0-.902-.281h-.5v2.137h.5c.329.019.654-.082.902-.281zM21.79 3.609s9.301 3.215 9.103 7.867v7.869s-9.294-3.217-9.1-7.869l-.004-7.867zM39.179 17.503a13.494 13.494 0 0 1 5.909-1.994v-2.463c-2.444.862-4.517 2.426-5.909 4.457z" />
            <path
                d="M38.124 18.245c1.438-2.651 3.93-4.696 6.964-5.715V5.432s-13.245 4.58-12.965 11.205V27.84s.59-.205 1.519-.589c0-.358 0-.719.042-1.082.274-3.076 1.871-5.926 4.44-7.924z" />
            <path
                d="M36.864 22.407c.07-.777.225-1.546.463-2.294-1.599 1.725-2.568 3.866-2.77 6.122-.019.213-.03.426-.035.645a40.466 40.466 0 0 0 2.548-1.229 10.624 10.624 0 0 1-.206-3.244zM37.391 22.447a10.17 10.17 0 0 0 .164 2.938c3.619-1.983 7.685-5.046 7.528-8.748v-.323c-2.585.265-5.004 1.3-6.885 2.946a10.29 10.29 0 0 0-.807 3.188z" />
        </symbol>
        <symbol id="icon-logo-06" viewBox="0 0 57 32">
            <path
                d="M28.493 14.618a1.58 1.58 0 0 1-.323-1.061v-1.538c0-.471.107-.83.321-1.075s.581-.367 1.102-.366c.489 0 .836.104 1.042.313.224.266.333.592.308.92v.361h-.875v-.366c.003-.12-.005-.24-.025-.358a.352.352 0 0 0-.125-.213.505.505 0 0 0-.317-.083.533.533 0 0 0-.333.088.412.412 0 0 0-.145.235 1.74 1.74 0 0 0-.034.38v1.866c-.014.18.025.36.112.524.044.055.104.099.175.127s.149.038.226.029a.478.478 0 0 0 .31-.084.375.375 0 0 0 .13-.227c.02-.124.03-.249.027-.374v-.379h.875v.346c.025.342-.082.682-.303.967-.201.228-.544.343-1.047.343s-.884-.122-1.1-.375zM32.137 14.633c-.221-.239-.332-.588-.332-1.05v-1.617c0-.457.11-.802.332-1.037s.591-.351 1.109-.35c.515 0 .882.117 1.103.35.221.235.333.58.333 1.037v1.617c0 .457-.112.807-.337 1.048s-.591.361-1.1.361c-.509 0-.886-.122-1.109-.36zm1.517-.388a.906.906 0 0 0 .105-.479v-1.98a.88.88 0 0 0-.103-.469c-.044-.057-.106-.101-.179-.129s-.152-.037-.231-.027c-.079-.009-.159 0-.231.028s-.135.072-.18.129a.853.853 0 0 0-.105.469v1.99a.888.888 0 0 0 .105.479c.051.05.114.091.185.119a.612.612 0 0 0 .635-.119v-.009zM35.735 10.626h.942l.708 2.984.725-2.984h.917l.092 4.308h-.678l-.072-2.994-.699 2.994h-.544l-.725-3.005-.067 3.005h-.685l.085-4.308zM40.176 10.626h1.468c.846 0 1.268.408 1.268 1.223 0 .781-.445 1.171-1.335 1.17h-.5v1.915h-.906l.005-4.308zm1.254 1.841a.7.7 0 0 0 .498-.136.693.693 0 0 0 .13-.486 1.327 1.327 0 0 0-.044-.391c-.013-.043-.036-.083-.067-.118s-.07-.065-.114-.087a.94.94 0 0 0-.404-.069h-.352v1.287h.352zM44.218 10.626h.973l.998 4.308h-.844l-.197-.993h-.868l-.203.993h-.857l.998-4.308zm.832 2.815-.339-1.808-.339 1.808h.678zM46.996 10.626h.634l1.214 2.457v-2.457h.752v4.308h-.603l-1.221-2.565v2.565h-.777l.002-4.308zM51.357 13.291l-1.009-2.659h.85l.616 1.708.578-1.708h.832l-.997 2.659v1.642h-.87v-1.642zM29.892 16.817v.225h-.739v1.75h-.31v-1.75H28.1v-.225h1.792zM32.209 18.793h-.239a.105.105 0 0 1-.067-.019.102.102 0 0 1-.04-.045l-.214-.469h-1.026l-.214.469a.119.119 0 0 1-.033.053.112.112 0 0 1-.067.019h-.239l.906-1.976h.315l.917 1.968zm-1.5-.734h.855l-.362-.804a1.426 1.426 0 0 1-.067-.186 4.03 4.03 0 0 0-.034.105l-.033.083-.359.802zM33.771 18.599a1.018 1.018 0 0 0 .315-.023.961.961 0 0 0 .13-.036c.04-.014.08-.031.121-.048v-.444h-.362c-.009 0-.018-.001-.026-.003s-.016-.007-.023-.012c-.006-.004-.011-.01-.014-.016s-.005-.013-.004-.02v-.152h.703v.757a1.407 1.407 0 0 1-.609.202 2.591 2.591 0 0 1-.264.012 1.41 1.41 0 0 1-.457-.073 1.104 1.104 0 0 1-.362-.206.956.956 0 0 1-.234-.313.99.99 0 0 1-.083-.41.907.907 0 0 1 .316-.726c.103-.089.227-.159.362-.205.155-.05.32-.075.486-.074.084 0 .169.006.252.017a1.21 1.21 0 0 1 .397.128c.056.031.108.065.158.103l-.087.122c-.007.011-.017.021-.029.027s-.027.01-.041.01a.118.118 0 0 1-.056-.016 1.344 1.344 0 0 1-.089-.047.727.727 0 0 0-.121-.053 1.171 1.171 0 0 0-.167-.044 1.362 1.362 0 0 0-.23-.017 1.06 1.06 0 0 0-.35.055.704.704 0 0 0-.435.402.924.924 0 0 0 0 .659.756.756 0 0 0 .446.405c.115.034.237.047.359.039zM36.659 18.567h.989v.225h-1.292v-1.976h.31l-.007 1.75zM38.678 18.792h-.31v-1.976h.31v1.976zM39.83 16.826a.151.151 0 0 1 .047.036l1.324 1.489a.41.41 0 0 1 0-.07v-1.472h.27v1.984h-.156a.14.14 0 0 1-.067-.011.184.184 0 0 1-.049-.038l-1.323-1.488v1.536h-.259v-1.976h.161c.017 0 .035.003.051.009zM43.753 16.817v.217h-1.098v.652h.89v.21h-.89v.674h1.098v.217h-1.417v-1.971h1.417zM11.286 4.616l13.757 3.372v11.818l-13.757-3.371V4.616zm-.882-1.007V17.01l15.52 3.806V7.417L10.404 3.61z" />
            <path d="M18.722 27.036 3.2 23.227V9.828l15.522 3.807v13.401z" />
            <path
                d="m10.661 4.465 13.578 3.33-5.774 4.987L4.885 9.45l5.776-4.985zm-.257-.856L3.2 9.828l15.522 3.807 7.202-6.219-15.52-3.807zM19.595 26.282l6.329-5.465-6.329-1.553v7.018z" />
        </symbol>
        <symbol id="icon-instagram-01" viewBox="0 0 32 32">
            <path
                d="M31.969 9.408c-.075-1.7-.35-2.869-.744-3.882a7.806 7.806 0 0 0-1.851-2.838A7.867 7.867 0 0 0 26.542.844C25.523.45 24.36.175 22.66.1 20.947.019 20.403 0 16.059 0s-4.888.019-6.595.094c-1.7.075-2.869.35-3.882.744a7.803 7.803 0 0 0-2.838 1.85A7.867 7.867 0 0 0 .9 5.52C.506 6.539.231 7.702.156 9.402c-.081 1.713-.1 2.257-.1 6.601s.019 4.888.094 6.595c.075 1.7.35 2.869.744 3.882a7.895 7.895 0 0 0 1.85 2.838 7.867 7.867 0 0 0 2.832 1.844c1.019.394 2.182.669 3.882.744 1.706.075 2.25.094 6.595.094s4.888-.019 6.595-.094c1.7-.075 2.869-.35 3.882-.744a8.184 8.184 0 0 0 4.682-4.682c.394-1.019.669-2.182.744-3.882.075-1.707.094-2.251.094-6.595s-.006-4.888-.081-6.595zm-2.882 13.065c-.069 1.563-.331 2.407-.55 2.969a5.31 5.31 0 0 1-3.038 3.038c-.563.219-1.413.481-2.969.55-1.688.075-2.194.094-6.464.094s-4.782-.019-6.464-.094c-1.563-.069-2.407-.331-2.969-.55a4.926 4.926 0 0 1-1.838-1.194 4.974 4.974 0 0 1-1.194-1.838c-.219-.563-.481-1.413-.55-2.969-.075-1.688-.094-2.194-.094-6.464s.019-4.782.094-6.464c.069-1.563.331-2.407.55-2.969a4.868 4.868 0 0 1 1.2-1.838A4.974 4.974 0 0 1 6.639 3.55c.563-.219 1.413-.481 2.969-.55 1.688-.075 2.194-.094 6.464-.094 4.276 0 4.782.019 6.464.094 1.563.069 2.407.331 2.969.55a4.914 4.914 0 0 1 1.838 1.194 4.974 4.974 0 0 1 1.194 1.838c.219.563.481 1.413.55 2.969.075 1.688.094 2.194.094 6.464s-.019 4.77-.094 6.458z" />
            <path
                d="M16.059 7.783c-4.538 0-8.22 3.682-8.22 8.22s3.682 8.22 8.22 8.22c4.539 0 8.22-3.682 8.22-8.22s-3.682-8.22-8.22-8.22zm0 13.552a5.333 5.333 0 0 1 0-10.664 5.333 5.333 0 0 1 0 10.664zM26.524 7.458a1.919 1.919 0 1 1-3.838 0 1.919 1.919 0 0 1 3.838 0z" />
        </symbol>
        <symbol id="icon-twitter-02" viewBox="0 0 32 32">
            <path
                d="M32 6.078c-1.19.522-2.458.868-3.78 1.036a6.523 6.523 0 0 0 2.886-3.626 13.11 13.11 0 0 1-4.16 1.588A6.574 6.574 0 0 0 22.154 3c-3.632 0-6.556 2.948-6.556 6.562 0 .52.044 1.02.152 1.496-5.454-.266-10.28-2.88-13.522-6.862a6.605 6.605 0 0 0-.898 3.316 6.57 6.57 0 0 0 2.914 5.452 6.479 6.479 0 0 1-2.964-.808v.072c0 3.188 2.274 5.836 5.256 6.446a6.548 6.548 0 0 1-1.72.216 5.8 5.8 0 0 1-1.242-.112c.85 2.598 3.262 4.508 6.13 4.57a13.182 13.182 0 0 1-8.134 2.798c-.538 0-1.054-.024-1.57-.09A18.469 18.469 0 0 0 10.064 29c12.072 0 18.672-10 18.672-18.668 0-.29-.01-.57-.024-.848A13.087 13.087 0 0 0 32 6.078z" />
        </symbol>
        <symbol id="icon-facebook-03" viewBox="0 0 32 32">
            <path
                d="M21.329 5.313h2.921V.225C23.746.156 22.013 0 19.994 0c-4.212 0-7.097 2.649-7.097 7.519V12H8.249v5.688h4.648V32h5.699V17.689h4.46l.708-5.688h-5.169V8.082c.001-1.644.444-2.769 2.735-2.769z" />
        </symbol>
        <symbol id="icon-linkedin-04" viewBox="0 0 32 32">
            <path
                d="M31.992 32v-.001H32V20.263c0-5.741-1.236-10.164-7.948-10.164-3.227 0-5.392 1.771-6.276 3.449h-.093v-2.913h-6.364v21.364h6.627V21.42c0-2.785.528-5.479 3.977-5.479 3.399 0 3.449 3.179 3.449 5.657v10.401h6.62zM.528 10.636h6.635V32H.528V10.636zM3.843 0C1.722 0 0 1.721 0 3.843s1.721 3.879 3.843 3.879c2.121 0 3.843-1.757 3.843-3.879A3.846 3.846 0 0 0 3.843 0z" />
        </symbol>
        <symbol id="icon-antenna" viewBox="0 0 32 32">
            <path fill="#212121" style="fill:var(--color1, #212121)"
                d="m30.773 22.098-8.443-8.505.937-4.615c.242.094.499.144.758.146h.006a2.159 2.159 0 1 0-2.008-1.435l-4.96.605L8.972.161a.534.534 0 0 0-.377-.16.532.532 0 0 0-.373.155L6.709 1.66a.534.534 0 0 0 0 .754l.814.826a14.943 14.943 0 0 0 2.519 17.663.513.513 0 0 0 .146.098c-.034.18-.051.364-.052.547v6.187h-6.4a2.67 2.67 0 0 0-2.667 2.667v1.067c0 .295.239.533.533.533h24.533a.533.533 0 0 0 .533-.533v-1.067a2.67 2.67 0 0 0-2.667-2.667h-6.4v-2.742a15.09 15.09 0 0 0 3.049.32 14.854 14.854 0 0 0 7.04-1.783l.818.823a.534.534 0 0 0 .377.16.532.532 0 0 0 .373-.155l1.513-1.504a.534.534 0 0 0 0-.754zM23.28 6.233a1.066 1.066 0 1 1 .752 1.822h-.003a1.067 1.067 0 0 1-.747-1.823h-.002zm-1.256 3.505-.598 2.946-1.175-1.182 1.774-1.763zm-.605-.902-1.92 1.909-1.485-1.493 3.405-.415zM24.004 28.8a1.6 1.6 0 0 1 1.6 1.6v.533H2.137V30.4a1.6 1.6 0 0 1 1.6-1.6h20.267zm-7.467-2.133v1.067h-5.333v-1.067h5.333zM11.204 25.6v-4.053c0-1.294 1.196-2.347 2.667-2.347s2.667 1.053 2.667 2.347V25.6h-5.333zm6.4-1.696v-2.357c0-1.882-1.675-3.413-3.733-3.413a3.8 3.8 0 0 0-3.281 1.786A13.87 13.87 0 0 1 8.311 4.033l18.602 18.708a13.818 13.818 0 0 1-9.309 1.163zm11.289-.684L7.836 2.039l.755-.752 7.935 7.98c.004 0 .006.007.01.01l13.115 13.191-.757.752z" />
            <path fill="#2196f3" style="fill:var(--color2, #2196f3)"
                d="M13.876 20.267h-.005a1.6 1.6 0 1 0-.004 3.2h.005a1.6 1.6 0 1 0 .004-3.2zm.373 1.978a.534.534 0 0 1-.752-.756.534.534 0 0 1 .373-.155.532.532 0 0 1 .373.911h.005z" />
        </symbol>
        <symbol id="icon-clock" viewBox="0 0 32 32">
            <path fill="#212121" style="fill:var(--color1, #212121)"
                d="M31.297 15.301C31.295 6.849 24.442-.002 15.989 0S.686 6.855.688 15.308a15.304 15.304 0 0 0 10.649 14.576.662.662 0 0 0 .529-.065.637.637 0 0 0 .283-.356l3.865-12.25a1.912 1.912 0 1 0-.84-3.635l-5.106-5.107a.637.637 0 0 0-.902.902l5.103 5.109a1.876 1.876 0 0 0 .536 2.309l-3.683 11.673C3.844 25.783.118 17.71 2.799 10.432S13.553-.572 20.831 2.109s11.004 10.754 8.323 18.032a14.042 14.042 0 0 1-7.462 7.973l-.398-1.874a.638.638 0 0 0-1.048-.344l-3.837 3.426a.637.637 0 0 0 .231 1.084l4.899 1.563a.638.638 0 0 0 .819-.74l-.391-1.839a15.255 15.255 0 0 0 9.329-14.089zm-15.305-.637a.638.638 0 1 1 0 1.277.638.638 0 0 1 0-1.277zm2.101 14.864 2.184-1.948.603 2.84-2.787-.892z" />
            <path fill="#2196f3" style="fill:var(--color2, #2196f3)"
                d="M15.354 3.185V4.46a.638.638 0 1 0 1.276 0V3.185a.638.638 0 0 0-1.276 0zM3.876 14.664a.638.638 0 0 0 0 1.276h1.275a.638.638 0 1 0 0-1.276H3.876zM28.108 15.939a.638.638 0 1 0 0-1.276h-1.275a.638.638 0 0 0 0 1.276h1.275z" />
        </symbol>
        <symbol id="icon-diagram" viewBox="0 0 32 32">
            <path fill="#2196f3" style="fill:var(--color2, #2196f3)"
                d="M14.926 14.965h1.066v4.798h-1.066v-4.797zM19.19 17.097h1.066v2.665H19.19v-2.665zM10.661 18.696h1.066v1.066h-1.066v-1.066zM7.463 18.163h1.066v1.599H7.463v-1.599z" />
            <path fill="#212121" style="fill:var(--color1, #212121)"
                d="M1.599 28.291h25.587a1.6 1.6 0 0 0 1.599-1.599V24.56a1.6 1.6 0 0 0-1.599-1.599h-.533V9.668L29.681 6.8a1.608 1.608 0 1 0-.746-.763L26.654 8.2V6.97a1.6 1.6 0 0 0-1.599-1.599H3.733A1.6 1.6 0 0 0 2.134 6.97v15.992h-.533a1.6 1.6 0 0 0-1.599 1.599v2.132a1.6 1.6 0 0 0 1.599 1.599zM30.384 4.837a.533.533 0 1 1 0 1.067.533.533 0 0 1 0-1.067zM3.198 6.969c0-.294.239-.533.533-.533h21.322c.294 0 .533.239.533.533v2.239l-1.066 1.013V8.035a.533.533 0 0 0-.533-.533H4.797a.533.533 0 0 0-.533.533v13.326c0 .294.239.533.533.533h19.19a.533.533 0 0 0 .533-.533v-9.674l1.066-1.01v12.284H3.198V6.969zm4.798 6.93a1.598 1.598 0 1 0 1.107 2.749l1.853.93a.532.532 0 0 0 .636-.123l3.939-4.431 3.872 2.901a.533.533 0 0 0 .686-.039l3.365-3.188 1.066 8.131H5.33V8.569h18.124v2.66l-3.771 3.572-3.904-2.927a.533.533 0 0 0-.718.072l-3.993 4.493-1.493-.746c.011-.064.018-.129.02-.193a1.6 1.6 0 0 0-1.599-1.599zm.533 1.599a.533.533 0 1 1-1.067 0 .533.533 0 0 1 1.067 0zm3.198 8.529h5.331v.533a.533.533 0 0 1-.533.533h-4.264a.533.533 0 0 1-.533-.533v-.533zm-10.661.533c0-.294.239-.533.533-.533h9.062v.533a1.6 1.6 0 0 0 1.599 1.599h4.264a1.6 1.6 0 0 0 1.599-1.599v-.533h9.062c.294 0 .533.239.533.533v2.132a.533.533 0 0 1-.533.533H1.598a.533.533 0 0 1-.533-.533V24.56z" />
        </symbol>
        <symbol id="icon-astronaut" viewBox="0 0 32 32">
            <path fill="#2196f3" style="fill:var(--color2, #2196f3)"
                d="M31.974 4.524a.534.534 0 0 0-.43-.363l-1.91-.278-.855-1.731c-.179-.365-.777-.365-.956 0l-.855 1.731-1.91.278a.535.535 0 0 0-.296.91l1.383 1.348-.326 1.903c-.034.2.048.402.212.522a.53.53 0 0 0 .562.04l1.709-.899 1.709.899a.536.536 0 0 0 .775-.563l-.326-1.903 1.383-1.348a.536.536 0 0 0 .135-.547zm-2.463 1.327a.534.534 0 0 0-.153.472l.191 1.114-1-.526a.533.533 0 0 0-.498 0l-1.001.526.191-1.114a.534.534 0 0 0-.153-.472l-.81-.789 1.119-.163a.532.532 0 0 0 .402-.292l.5-1.013.5 1.013a.535.535 0 0 0 .402.292l1.119.163-.809.789zM26.134 20.522h-1.067v1.067h1.067v-1.067zM26.134 22.656h-1.067v1.067h1.067v-1.067zM27.2 21.589h-1.067v1.067H27.2v-1.067zM25.067 21.589H24v1.067h1.067v-1.067zM22.4 26.389h-1.067v1.067H22.4v-1.067zM22.4 28.522h-1.067v1.067H22.4v-1.067zM23.467 27.456H22.4v1.067h1.067v-1.067zM21.333 27.456h-1.067v1.067h1.067v-1.067zM16 24.256h-1.067v1.067H16v-1.067zM16 26.389h-1.067v1.067H16v-1.067zM17.067 25.322H16v1.067h1.067v-1.067zM14.933 25.322h-1.067v1.067h1.067v-1.067zM5.867 6.122H4.8v1.067h1.067V6.122zM5.867 8.255H4.8v1.067h1.067V8.255z" />
            <path fill="#2196f3" style="fill:var(--color2, #2196f3)"
                d="M6.933 7.189H5.866v1.067h1.067V7.189zM4.8 7.189H3.733v1.067H4.8V7.189z" />
            <path fill="#212121" style="fill:var(--color1, #212121)"
                d="M24.715 14.159a1.775 1.775 0 0 0-1.188-.705 1.778 1.778 0 0 0-1.34.352l-1.252.96-1.898 1.417-1.358-.541c2.421-1.086 4.114-3.508 4.114-6.32 0-3.823-3.123-6.933-6.961-6.933s-6.961 3.11-6.961 6.933a6.86 6.86 0 0 0 1.12 3.758l-2.764-.024h-.005c-.009 0-.015.004-.023.005a.515.515 0 0 0-.155.031l-.038.013c-.006.003-.013.003-.019.006l-3.233 1.596-.001.001-1.893.911a.397.397 0 0 0-.063.035 1.779 1.779 0 0 0-.598 2.295c.22.429.595.745 1.056.889a1.776 1.776 0 0 0 1.378-.128l1.388-.738 2.264-1.169 1.357-.008L2.2 22.211l-.002.001-1.339 1.333c-.316.315-.49.732-.49 1.178s.174.863.49 1.179c.325.323.752.485 1.179.485s.854-.162 1.18-.485l1.314-1.309 1.741-1.3.901.897-1.762 1.754-.002.001-1.339 1.333c-.316.315-.49.732-.49 1.178s.174.863.49 1.179c.325.323.753.485 1.18.485s.855-.162 1.18-.485l3.482-3.467.001-.002 1.01-1-.004-.004c.006-.006.015-.009.022-.015l5.166-5.658 3.471.494a.52.52 0 0 0 .262-.033c.018-.006.033-.015.05-.023.019-.01.039-.015.058-.027l3.213-2.133c.012-.008.018-.021.029-.029.013-.01.029-.014.041-.026l1.271-1.191c.662-.62.753-1.635.212-2.362zM2.13 17.77a.714.714 0 0 1-.558.052.717.717 0 0 1-.213-1.26l1.314-.632.449 1.312-.992.528zm3.498-1.828-1.548.8-.439-1.283 2.027-1.001-.04 1.484zm15.099-6.62a5.79 5.79 0 0 1-.599 2.559l-4.181-1.899a1.863 1.863 0 0 0-.788-1.388l1.464-4.86c2.378.756 4.105 2.974 4.105 5.588zm-11.789 0c0-3.235 2.644-5.867 5.894-5.867.253 0 .5.021.745.052l-1.432 4.754c-.019-.001-.037-.006-.057-.006-1.033 0-1.873.837-1.873 1.867s.84 1.867 1.873 1.867c.694 0 1.294-.383 1.618-.945l3.862 1.755a5.894 5.894 0 0 1-4.737 2.39c-3.25 0-5.894-2.632-5.894-5.867zm5.956.8c0 .441-.362.8-.806.8s-.806-.359-.806-.8c0-.441.362-.8.806-.8s.806.359.806.8zM2.465 25.146a.608.608 0 0 1-.854.001.592.592 0 0 1 0-.844l.962-.958.851.848-.959.955zm3.214 3.734a.608.608 0 0 1-.855.001.592.592 0 0 1 0-.844l.963-.959.852.848-.96.955zm3.481-3.469-.002.001-1.765 1.76-.852-.848 1.763-1.755.002-.001c.04-.04.065-.088.09-.135.007-.014.02-.026.026-.04.017-.041.019-.085.026-.129.003-.025.014-.047.014-.073 0-.036-.013-.07-.02-.106-.006-.032-.006-.065-.019-.095a.55.55 0 0 0-.091-.138c-.01-.012-.014-.027-.025-.038h-.001l-.001-.002-1.607-1.6c-.017-.017-.039-.024-.058-.038a.507.507 0 0 0-.087-.058.515.515 0 0 0-.093-.033.507.507 0 0 0-.103-.02.5.5 0 0 0-.095.005.53.53 0 0 0-.104.02.477.477 0 0 0-.094.045c-.02.011-.042.015-.061.029L4.23 23.486l-.901-.897 2.399-2.386 4.361 4.289-.928.919zm6.819-7.017c-.015-.002-.03.004-.045.003a.556.556 0 0 0-.3.075.492.492 0 0 0-.083.061c-.013.011-.028.017-.04.029l-4.698 5.146-4.328-4.257 2.833-2.818a.534.534 0 0 0-.379-.911v-.001l-2.219.013.028-1.607 3.104.027a6.947 6.947 0 0 0 4.981 2.101c.437 0 .864-.045 1.279-.123.04.032.079.065.13.085l2.41.96.331 1.644-3.003-.427zm4.041.178-.313-1.558 1.446-1.08.947 1.257-2.08 1.381zm3.754-2.831-.838.785-.931-1.236.831-.637a.735.735 0 0 1 .543-.143.718.718 0 0 1 .48.284.713.713 0 0 1-.085.947z" />
            <path fill="#212121" style="fill:var(--color1, #212121)"
                d="m13.602 18.544-2.143-2.133a.534.534 0 0 0-.753 0l-2.142 2.133a.537.537 0 0 0 0 .756l2.142 2.133a.536.536 0 0 0 .753 0l2.143-2.133a.535.535 0 0 0 0-.756zm-2.519 1.759-1.387-1.381 1.387-1.381 1.387 1.381-1.387 1.381zM17.164 5.071l-.258 1.036c.071.018 1.738.452 1.738 2.149h1.067c0-2.017-1.666-2.965-2.547-3.185zM19.711 9.322h-1.067v1.067h1.067V9.322z" />
        </symbol>
    </defs>
</svg>